<svg xmlns="http://www.w3.org/2000/svg" width="30" height="30"  viewBox="0 0 24.85 30.798">
  <g id="shopping-bag" transform="translate(-48.3 0.5)">
    <path id="Path_38" data-name="Path 38" d="M72.644,25.758,70.938,6.544a.821.821,0,0,0-.817-.75h-3.51a5.887,5.887,0,0,0-11.773,0h-3.51a.817.817,0,0,0-.817.75L48.806,25.758c0,.024-.006.049-.006.073A4.246,4.246,0,0,0,53.273,29.8h14.9a4.246,4.246,0,0,0,4.473-3.967A.3.3,0,0,0,72.644,25.758ZM60.725,1.645a4.245,4.245,0,0,1,4.241,4.15H56.484A4.245,4.245,0,0,1,60.725,1.645Zm7.452,26.507h-14.9a2.625,2.625,0,0,1-2.827-2.285L52.078,7.446h2.754v2.5a.823.823,0,1,0,1.645,0v-2.5h8.488v2.5a.823.823,0,1,0,1.645,0v-2.5h2.754L71,25.867A2.629,2.629,0,0,1,68.178,28.152Z" stroke="#434141" fill="#434141" stroke-width="1"/>
  </g>
</svg>
