<svg width="107" height="38" viewBox="0 0 107 38" fill="none" xmlns="http://www.w3.org/2000/svg">
<path d="M48.5234 2.83984L48.875 2.85938C50.724 2.85938 51.8828 2.97005 52.3516 3.19141C53.3672 3.33464 54.2917 3.51693 55.125 3.73828C55.3073 3.84245 55.6719 3.95964 56.2188 4.08984C56.388 4.15495 56.5378 4.3112 56.668 4.55859C57.1367 4.94922 57.3711 5.49609 57.3711 6.19922L57 7.87891C56.8568 8.24349 56.4792 8.88802 55.8672 9.8125C55.8672 10.0859 54.9102 10.5286 52.9961 11.1406C52.918 11.2448 52.5794 11.3229 51.9805 11.375C51.7721 11.4401 51.1016 11.5312 49.9688 11.6484V13.9336L49.9297 15.8281C50.6328 15.8281 51.3164 15.9714 51.9805 16.2578V16.3164H52L51.9805 16.3359V16.5508C51.9805 16.5898 52 16.6419 52.0391 16.707L51.9414 16.9023V17.0977C51.9414 17.2409 51.8242 17.3125 51.5898 17.3125H50.7695V17.3516C50.7695 17.4167 50.9193 17.4622 51.2188 17.4883V17.5859L50.9844 17.625C50.4115 17.4688 49.5195 17.3906 48.3086 17.3906C48.2044 17.2474 48.1393 17.1758 48.1133 17.1758L47.5859 17.3125C47.5859 17.3646 47.6576 17.4036 47.8008 17.4297V17.4492C47.8008 17.4883 47.7292 17.5208 47.5859 17.5469C47.4557 17.5469 47.3906 17.1302 47.3906 16.2969L47.3125 15.9453C47.3125 15.8151 47.3776 15.75 47.5078 15.75L48.1914 15.8281H48.3086C48.4518 15.8281 48.5234 14.8841 48.5234 12.9961L48.5625 12.0586C48.4844 12.0586 48.4453 11.9349 48.4453 11.6875L48.4062 11.1016V10.2227C48.4062 10.0273 48.3932 9.82552 48.3672 9.61719L48.4062 9.48047L48.3281 9.40234V9.32422L48.4453 9.20703V9.05078L48.3672 8.95312C48.4323 8.06771 48.4648 7.39714 48.4648 6.94141V6.90234C48.3997 6.8112 48.3672 6.64844 48.3672 6.41406V6.16016L48.4844 5.00781V4.98828C48.1979 4.96224 47.8464 4.94922 47.4297 4.94922C47.2734 4.94922 47.1693 4.73438 47.1172 4.30469V4.28516C47.1172 4.20703 47.1693 4.05078 47.2734 3.81641L47.2344 3.54297C47.2344 3.41276 47.3385 3.34115 47.5469 3.32812H47.6055V3.30859L47.5078 3.11328V3.07422C47.5208 2.95703 47.8594 2.87891 48.5234 2.83984ZM49.1875 3.11328L48.582 3.15234V3.19141C48.582 3.23047 48.9922 3.26953 49.8125 3.30859L50.3789 3.26953C50.444 3.24349 50.4766 3.22396 50.4766 3.21094V3.15234L50.0664 3.11328H49.1875ZM50.7695 3.21094L50.8281 3.25H51.1797L51.2578 3.21094C51.2578 3.15885 51.1602 3.1263 50.9648 3.11328C50.8346 3.1263 50.7695 3.15885 50.7695 3.21094ZM53.6797 3.60156L53.6211 3.64062H53.7188L53.6797 3.60156ZM53.6211 3.99219L53.6016 4.01172V4.03125C53.6797 4.07031 53.7643 4.08984 53.8555 4.08984H53.875V4.07031C53.875 4.01823 53.7904 3.99219 53.6211 3.99219ZM48.4648 4.12891V4.16797L48.582 4.1875H48.6406C48.7969 4.16146 48.875 4.12891 48.875 4.08984L48.8359 4.03125H48.6797C48.5625 4.03125 48.4909 4.0638 48.4648 4.12891ZM49.4219 4.07031H49.3633V4.08984H49.4219V4.07031ZM49.8125 4.20703H49.7148V4.24609C49.7148 4.3763 49.8125 4.44141 50.0078 4.44141L50.5352 4.38281V4.36328C50.5352 4.27214 50.2943 4.22005 49.8125 4.20703ZM54.5 4.26562L54.4805 4.28516V4.30469C54.6888 4.47396 54.8385 4.55859 54.9297 4.55859V4.48047C54.9297 4.38932 54.7865 4.31771 54.5 4.26562ZM48.9922 4.30469L48.9336 4.36328V4.38281C49.0117 4.5 49.1289 4.55859 49.2852 4.55859H49.4414L49.5391 4.44141V4.40234C49.5391 4.36328 49.4284 4.33073 49.207 4.30469H48.9922ZM53.7578 4.44141H53.7188V4.5C53.7188 4.5651 53.7643 4.59766 53.8555 4.59766H53.875V4.48047L53.7578 4.44141ZM48.6406 4.51953L48.582 4.59766C48.582 4.61068 48.6406 4.63021 48.7578 4.65625C48.849 4.64323 48.8945 4.6237 48.8945 4.59766L48.8555 4.51953H48.6406ZM49.7734 4.8125V4.94922V5.00781V5.08594L49.7344 6.0625C49.7344 6.77865 49.8451 7.83984 50.0664 9.24609L50.125 10.2031C50.5156 10.2031 51.2057 10.0859 52.1953 9.85156C52.599 9.85156 53.1263 9.6237 53.7773 9.16797C54.2461 8.93359 54.6497 8.64714 54.9883 8.30859C55.3529 7.77474 55.5352 7.27995 55.5352 6.82422C55.5742 6.82422 55.5938 6.72656 55.5938 6.53125V6.39453C55.5938 6.23828 55.1576 5.89974 54.2852 5.37891C53.0612 5.0013 52.2604 4.74089 51.8828 4.59766L51.4727 4.55859C50.4701 4.55859 49.9036 4.64323 49.7734 4.8125ZM49.3633 4.79297H49.3242V4.94922H49.3633L49.3828 4.89062V4.85156L49.3633 4.79297ZM54.9883 5.04688H54.9688V5.08594C55.0729 5.22917 55.1966 5.30078 55.3398 5.30078V5.18359C55.1966 5.09245 55.0794 5.04688 54.9883 5.04688ZM56.0234 5.04688L55.9648 5.08594V5.125C56.0039 5.1901 56.0495 5.22266 56.1016 5.22266L56.1406 5.18359V5.16406L56.043 5.04688H56.0234ZM55.3398 5.67188H55.2227V5.73047C55.2357 5.78255 55.3008 5.80859 55.418 5.80859H55.5156L55.5352 5.78906H55.5742C55.5742 5.71094 55.4961 5.67188 55.3398 5.67188ZM55.9062 6.0625V6.14062L56.0234 6.21875L56.0625 6.17969C56.0234 6.10156 55.9714 6.0625 55.9062 6.0625ZM57.0977 6.17969L57.0586 6.21875C57.0716 6.3099 57.1042 6.35547 57.1562 6.35547H57.1953L57.2344 6.21875L57.1562 6.17969H57.0977ZM56.6289 6.70703L56.5703 6.74609V6.78516L56.6289 6.84375H56.668V6.74609L56.6289 6.70703ZM55.2812 8.67969L55.3008 8.71875C55.4961 8.5625 55.5938 8.42578 55.5938 8.30859H55.5156C55.3594 8.46484 55.2812 8.58854 55.2812 8.67969ZM49.3633 8.32812L49.3242 8.38672V8.44531H49.3633L49.4219 8.38672V8.32812H49.3633ZM53.8164 9.53906L53.8555 9.57812C53.9076 9.5651 53.9531 9.51302 53.9922 9.42188V9.36328H53.9336C53.8555 9.40234 53.8164 9.46094 53.8164 9.53906ZM55.4961 9.51953L55.457 9.57812V9.59766L55.4961 9.65625H55.5156L55.5938 9.57812L55.5352 9.51953H55.4961ZM52.5273 10.1641V10.2227H52.5859C52.9635 10.1576 53.1523 10.099 53.1523 10.0469V10.0078H53.0156C52.7292 10.0208 52.5664 10.0729 52.5273 10.1641ZM54.4609 10.2812V10.3008H54.5586C54.7279 10.3008 54.9362 10.2292 55.1836 10.0859V10.0078H55.0859C54.6693 10.125 54.4609 10.2161 54.4609 10.2812ZM53.7773 10.3984L53.6797 10.4961H53.7188C53.8099 10.4961 53.862 10.4701 53.875 10.418V10.3984H53.7773ZM52.8789 10.6523L52.8398 10.7109L52.9961 10.7695H53.0352L53.0742 10.7109L53.0352 10.6523H52.8789ZM51.3164 10.9453V10.9844H51.4141L51.8438 10.8477C52.2995 10.8346 52.5404 10.7956 52.5664 10.7305V10.7109H52.3711C51.8633 10.7109 51.5117 10.7891 51.3164 10.9453ZM50.2617 10.8477L50.2031 10.9062C50.2031 10.9583 50.2878 10.9844 50.457 10.9844C50.5872 10.9714 50.6523 10.9453 50.6523 10.9062L50.5938 10.8477H50.2617ZM49.1875 14.207C49.1875 14.4935 49.207 14.6367 49.2461 14.6367H49.2852V14.4609V13.7969L49.2461 13.7578C49.207 13.7578 49.1875 13.9076 49.1875 14.207ZM49.2852 14.9688L49.2461 14.9297C49.207 15.0078 49.1875 15.0859 49.1875 15.1641V15.2227H49.2461L49.2852 15.1836V14.9688ZM48.0352 16.1992L47.9961 16.2383C48.0091 16.2904 48.0547 16.3164 48.1328 16.3164C48.224 16.3034 48.2695 16.2773 48.2695 16.2383V16.1992H48.0352ZM50.1055 16.668H49.8711V16.707L50.1641 16.7461H50.418V16.707L50.1055 16.668ZM50.3398 16.8633H50.1836V16.9219H50.2617L50.3398 16.9023V16.8633ZM51.043 16.9023L50.9062 16.9219V16.9609L50.9453 17H51.3555V16.9609L51.043 16.9023ZM50.6719 17.1758H50.5938V17.2344H50.6719V17.1758ZM59.5391 3.21094L60.2031 3.11328C60.6589 3.11328 61.0169 3.34766 61.2773 3.81641L61.4141 4.44141C61.388 4.6888 61.2448 5.01432 60.9844 5.41797C60.8151 5.58724 60.5547 5.67188 60.2031 5.67188C59.3828 5.67188 58.875 5.54818 58.6797 5.30078C58.4844 5.04036 58.3932 4.67578 58.4062 4.20703C58.3542 4.20703 58.3281 4.19401 58.3281 4.16797V4.12891C58.7188 3.51693 59.1224 3.21094 59.5391 3.21094ZM59.1484 3.69922V3.71875C59.5911 3.66667 59.8125 3.60807 59.8125 3.54297L59.7148 3.50391C59.3372 3.56901 59.1484 3.63411 59.1484 3.69922ZM59.4805 4.26562H59.5L59.6172 4.28516H59.6562C59.7995 4.28516 59.8906 4.23307 59.9297 4.12891L59.9102 4.08984H59.6758C59.5716 4.08984 59.5065 4.14844 59.4805 4.26562ZM60.8867 4.08984L60.8281 4.1875V4.26562H60.8477L60.9062 4.1875V4.08984H60.8867ZM60.418 4.73438V4.79297H60.4961C60.5872 4.79297 60.6589 4.7474 60.7109 4.65625V4.59766H60.6719C60.5807 4.59766 60.4961 4.64323 60.418 4.73438ZM59.9883 5.08594L59.9297 5.14453V5.18359H60.2812L60.3398 5.14453L60.2812 5.08594H59.9883ZM57.5078 6.94141H57.5664C57.6706 7.03255 57.8008 7.07812 57.957 7.07812L58.2109 6.96094C59.9818 6.96094 60.8672 7.01302 60.8672 7.11719L60.8867 7.25391V7.58594C61.0039 7.84635 61.0625 8.09375 61.0625 8.32812V8.64062C60.9062 10.763 60.8021 12.4818 60.75 13.7969C60.724 13.875 60.6979 14.0117 60.6719 14.207C60.6849 14.2591 60.7435 14.2852 60.8477 14.2852H60.9062C61.6094 14.2852 61.9609 14.3698 61.9609 14.5391L61.9414 14.5781V14.6953C62.0977 15.0078 62.1758 15.5026 62.1758 16.1797L62.2539 16.9609L62.1953 17L61.3359 17.0391H59.3828C57.9245 17.0391 57.1953 16.9219 57.1953 16.6875C57.1953 16.5443 57.1562 16.401 57.0781 16.2578C57.1172 16.1667 57.1823 16.0951 57.2734 16.043H57.332C57.3841 16.0951 57.4427 16.1211 57.5078 16.1211H57.5469C57.9245 16.1211 58.3737 16.0885 58.8945 16.0234V15.9844C57.7747 15.9062 57.2148 15.8151 57.2148 15.7109L57.1953 15.5547V15.3398L57.1562 14.832C57.1562 14.7018 57.6445 14.6367 58.6211 14.6367C58.7513 14.6367 58.8164 14.3438 58.8164 13.7578L59.0508 8.62109H59.0117C58.6471 8.62109 58.4648 8.59505 58.4648 8.54297C58.4648 8.52995 58.4844 8.51042 58.5234 8.48438C57.7422 8.48438 57.3516 8.39323 57.3516 8.21094C57.2995 8.19792 57.2734 8.14583 57.2734 8.05469L57.3711 7.82031C57.3711 7.76823 57.332 7.69661 57.2539 7.60547C57.3581 7.5013 57.4297 7.29297 57.4688 6.98047L57.5078 6.94141ZM57.8203 7.33203V7.41016H57.918C58.2565 7.41016 58.4258 7.38411 58.4258 7.33203L58.3867 7.25391H58.3281C57.9896 7.25391 57.8203 7.27995 57.8203 7.33203ZM60.4766 7.19531L60.418 7.25391L60.4961 7.3125H60.5352V7.25391L60.4766 7.19531ZM58.25 7.60547H57.8984V7.66406C57.8984 7.71615 57.9896 7.74219 58.1719 7.74219H58.3867H58.4453H59.0898C59.2852 7.74219 59.3828 7.70964 59.3828 7.64453V7.625C59.3828 7.5599 59.0052 7.55339 58.25 7.60547ZM59.9883 7.625L59.8125 7.60547V7.64453C59.9036 7.64453 60.0143 7.70964 60.1445 7.83984H60.1836C60.2096 7.83984 60.2227 7.82031 60.2227 7.78125H60.2617C60.3138 7.78125 60.3464 7.83984 60.3594 7.95703H60.3984L60.6719 7.76172V7.64453L60.2617 7.625H59.9883ZM59.9102 8.71875L60.0078 9.01172L59.8711 9.36328C59.9232 9.48047 59.9688 9.53906 60.0078 9.53906H60.0273L60.0664 9.42188V9.30469C60.0664 8.83594 60.138 8.60156 60.2812 8.60156L60.3398 8.52344V8.44531L60.2812 8.38672H60.1641C59.9948 8.38672 59.9102 8.4974 59.9102 8.71875ZM59.3047 10.5742L59.2461 13.0938C59.2591 13.1849 59.2786 13.2305 59.3047 13.2305C59.3438 13.2305 59.3698 13.1719 59.3828 13.0547L59.3633 12.7617C59.4284 12.6966 59.5 12.4362 59.5781 11.9805V11.8633L59.5391 11.5898C59.6172 11.5247 59.6562 11.4792 59.6562 11.4531C59.6042 11.3099 59.5781 11.1667 59.5781 11.0234V10.9844C59.6302 10.9844 59.6953 10.2552 59.7734 8.79688C59.7344 8.69271 59.6953 8.64062 59.6562 8.64062C59.4609 8.64062 59.3438 9.28516 59.3047 10.5742ZM60.2617 8.85547L60.1836 8.875V8.99219C60.1836 9.07031 60.2161 9.12891 60.2812 9.16797H60.3398L60.3984 9.08984V8.99219C60.3724 8.92708 60.3268 8.88151 60.2617 8.85547ZM60.1641 12.0391H60.0664C59.9622 12.5208 59.9102 12.8789 59.9102 13.1133H59.9297C59.9948 13.1133 60.0794 12.8464 60.1836 12.3125V12.1758L60.1641 12.0391ZM59.793 13.875V14.0117H59.832C59.8971 13.9857 59.9297 13.9076 59.9297 13.7773V13.6406H59.8711C59.8451 13.6406 59.819 13.7188 59.793 13.875ZM59.832 14.168L59.7734 14.2461V14.3438H59.832L59.9102 14.2852V14.2266L59.8516 14.168H59.832ZM61.3945 14.6367L61.3359 14.6562C61.4141 14.7214 61.5573 14.7604 61.7656 14.7734V14.7148C61.7656 14.6628 61.681 14.6367 61.5117 14.6367H61.3945ZM61.4727 15.457L61.2383 15.5156C61.2643 15.6719 61.3815 15.75 61.5898 15.75H61.6484V15.6914L61.6094 15.6328C61.6094 15.6198 61.6615 15.5807 61.7656 15.5156V15.418C61.7656 15.3268 61.7396 15.2747 61.6875 15.2617H61.6094C61.5703 15.2747 61.5247 15.3398 61.4727 15.457ZM57.7422 15.2812L57.6055 15.3203V15.3398C57.7096 15.444 58.1133 15.5026 58.8164 15.5156H58.9531C59.0573 15.5156 59.1224 15.4831 59.1484 15.418V15.3789C58.6016 15.3138 58.1328 15.2812 57.7422 15.2812ZM59.5781 15.5156L59.6562 15.6133C59.7734 15.6133 59.832 15.5482 59.832 15.418H59.7344C59.6562 15.418 59.6042 15.4505 59.5781 15.5156ZM61.4141 15.9062L61.3555 15.9844V16.0234H61.3945L61.4531 15.9453V15.9062H61.4141ZM59.9102 16.0234L59.6562 16.043H59.3828V16.1211L59.6562 16.1406L60.2227 16.1016V16.043H60.1445L59.9102 16.0234ZM61.9023 16.6875L61.8242 16.7461V16.8047H61.9414L61.9609 16.7461L61.9414 16.6875H61.9023ZM70.6719 7.09766L71.1211 6.98047C71.1211 7.04557 71.3099 7.09115 71.6875 7.11719C71.7526 7.46875 71.7852 7.89193 71.7852 8.38672C71.7852 8.46484 71.707 8.60156 71.5508 8.79688C71.2643 9.07031 70.9844 9.42839 70.7109 9.87109C69.487 11.0299 68.4323 11.9674 67.5469 12.6836L66.5312 13.3867C66.1927 13.8685 65.8021 14.4023 65.3594 14.9883C65.2552 15.1966 65.2031 15.3268 65.2031 15.3789L65.2617 15.418L66.9219 15.4961H68.9531C69.9818 15.4961 70.4961 15.457 70.4961 15.3789L70.5156 15.0078L70.6133 14.1094C71.4206 13.9922 71.9023 13.9922 72.0586 14.1094C72.332 14.1094 72.4492 14.7083 72.4102 15.9062C72.5013 16.3099 72.4362 16.6094 72.2148 16.8047C71.9935 16.987 71.6224 17.0651 71.1016 17.0391V16.9609H71.2773L71.5508 16.7461H71.1602C71.043 16.8242 70.5352 16.8958 69.6367 16.9609C68.9727 17.0391 68.0482 17.0781 66.8633 17.0781C65.0794 17.0781 63.9531 16.9674 63.4844 16.7461C63.25 16.7461 63.1328 16.5833 63.1328 16.2578C63.1068 16.1536 63.0612 15.6068 62.9961 14.6172L64.9492 12.957C66.9414 11.6419 68.224 10.6133 68.7969 9.87109L69.3828 9.14844V9.03125C67.651 8.90104 66.5443 8.83594 66.0625 8.83594H64.9492V8.99219C64.9492 9.05729 64.8971 9.18099 64.793 9.36328L64.7344 9.67578V9.71484L64.7539 10.2422L64.6562 10.2812L63.9336 10.3594C63.2826 10.2161 62.957 10.099 62.957 10.0078C63.0352 10.0078 63.1328 9.31771 63.25 7.9375C63.276 7.54688 63.3086 7.29948 63.3477 7.19531H63.3672L64.0898 7.33203C64.9102 7.26693 67.1042 7.1888 70.6719 7.09766ZM64.793 16.1211L64.7148 16.1992C64.7148 16.2253 64.7409 16.2383 64.793 16.2383L67.5664 16.2188L67.6445 16.2383V16.2578L67.5664 16.375V16.3945C69.5586 16.3294 70.5547 16.2643 70.5547 16.1992V15.9844L70.4766 15.8867C69.8776 15.9779 67.9831 16.056 64.793 16.1211ZM66.9023 8.58203V8.62109L67.4492 8.66016H67.957H68.2891H68.6406H69.2461C69.4414 8.66016 69.5391 8.63411 69.5391 8.58203C69.5391 8.50391 69.6497 8.46484 69.8711 8.46484C70.0013 8.38672 70.0664 8.29557 70.0664 8.19141L69.9688 8.15234C69.3307 8.15234 68.875 8.23047 68.6016 8.38672C68.4974 8.41276 67.931 8.47786 66.9023 8.58203ZM68.6992 10.4961C68.7513 10.4961 68.9466 10.3529 69.2852 10.0664C69.4284 10.0664 69.5521 9.97526 69.6562 9.79297C70.0078 9.54557 70.2422 9.3112 70.3594 9.08984C70.3984 9.08984 70.418 9.05078 70.418 8.97266V8.91406L70.3594 8.77734C70.3594 8.67318 70.4049 8.55599 70.4961 8.42578V8.38672C70.3789 8.38672 70.2096 8.59505 69.9883 9.01172C69.1289 9.88411 68.6992 10.3789 68.6992 10.4961ZM63.5234 9.34375L63.4062 9.28516C63.3542 9.42839 63.3281 9.58464 63.3281 9.75391V9.92969L63.3672 9.96875H63.3867L63.4648 9.89062V9.71484C63.4648 9.58464 63.5495 9.5 63.7188 9.46094C63.9661 9.08333 64.0898 8.72526 64.0898 8.38672V8.23047L63.9727 8.19141C63.7513 8.19141 63.6406 8.39323 63.6406 8.79688C63.6406 9.16146 63.6016 9.34375 63.5234 9.34375ZM66.0039 12.9961V13.0547H66.0625C66.8177 12.5599 67.2865 12.0911 67.4688 11.6484H67.4102C67.0846 11.8568 66.6159 12.306 66.0039 12.9961ZM63.2109 14.9297C63.2109 15.0078 63.25 15.0794 63.3281 15.1445H63.3672C63.4844 15.1445 63.7839 14.9102 64.2656 14.4414V14.4023H64.2461C64.194 14.4023 63.9206 14.5521 63.4258 14.8516C63.2826 14.8776 63.2109 14.9036 63.2109 14.9297ZM65.1055 13.7773V13.9141C65.2878 13.9141 65.5417 13.6536 65.8672 13.1328H65.8477C65.6654 13.1328 65.418 13.3477 65.1055 13.7773ZM64.2461 9.34375V9.36328H64.2656C64.3438 9.36328 64.4544 9.12891 64.5977 8.66016L64.6562 8.30859L64.6172 8.23047H64.5781C64.3568 8.63411 64.2461 9.00521 64.2461 9.34375ZM70.2227 16.4727L69.793 16.6094V16.668H70.1055C70.2227 16.668 70.2943 16.6354 70.3203 16.5703L70.75 16.6289H70.8477C70.9779 16.5508 71.043 16.4727 71.043 16.3945H70.9844C70.9844 16.4466 70.7305 16.4727 70.2227 16.4727ZM71.9414 14.4219H71.8633L71.8242 14.9297C71.8242 15.1641 71.8438 15.3529 71.8828 15.4961H71.9219H71.9805V15.418C71.9805 15.3919 71.9935 15.1836 72.0195 14.793L71.9414 14.4219ZM64.207 9.87109V9.92969L64.2461 9.96875H64.4609L64.5586 9.89062V9.87109C64.5586 9.61068 64.5195 9.48047 64.4414 9.48047C64.3633 9.48047 64.2852 9.61068 64.207 9.87109ZM63.4844 16.2578H63.543C63.6471 16.2578 63.8294 16.069 64.0898 15.6914L64.0703 15.6523C63.6797 15.8997 63.4844 16.1016 63.4844 16.2578ZM65.0469 8.13281L64.9883 8.17188V8.46484L65.0469 8.48438H65.2227C65.4831 8.48438 65.6133 8.46484 65.6133 8.42578C65.2487 8.41276 65.0664 8.3737 65.0664 8.30859C65.0794 8.23047 65.138 8.19141 65.2422 8.19141V8.15234L65.125 8.13281H65.0469ZM63.8945 15.3008V15.3789H63.9141C64.0312 15.3268 64.1615 15.1966 64.3047 14.9883V14.9297H64.2461C64.181 14.9297 64.0638 15.0534 63.8945 15.3008ZM68.8945 11.0625V11.1211H68.9336C69.1159 10.9909 69.2982 10.8151 69.4805 10.5938H69.4219C69.3438 10.6198 69.168 10.776 68.8945 11.0625ZM71.6289 16.1406L71.5898 16.2773V16.3945L71.6484 16.4727H71.7852L71.8242 16.3945V16.2773C71.7721 16.1862 71.707 16.1406 71.6289 16.1406ZM70.0664 7.41016V7.42969H70.3594L70.7109 7.41016V7.3125H70.4961C70.4049 7.3125 70.2617 7.34505 70.0664 7.41016ZM70.8086 15.7695V15.8281L70.8672 15.8672H70.9648L71.043 15.7891V15.6914L70.9844 15.6328H70.9062C70.8411 15.6589 70.8086 15.7044 70.8086 15.7695ZM65.8281 8.11328L65.75 8.13281V8.17188L65.9258 8.19141H66.2383C66.2383 8.15234 66.1016 8.1263 65.8281 8.11328ZM63.8945 16.4727L63.8164 16.5703L63.8945 16.6289C63.9857 16.6289 64.0378 16.6094 64.0508 16.5703V16.4727H63.8945ZM63.3672 15.5742L63.2891 15.6523V15.7695H63.3281C63.3542 15.7695 63.3802 15.7109 63.4062 15.5938L63.3867 15.5742H63.3672ZM63.7773 7.68359L63.7383 7.74219V7.76172L63.7773 7.80078H63.875L63.8945 7.76172V7.74219L63.875 7.68359H63.7773ZM67.8984 16.2578L67.9375 16.2188H68.0938V16.2383C68.0807 16.2904 68.0286 16.3164 67.9375 16.3164L67.8984 16.2578ZM70.457 7.95703H70.3594V7.99609L70.418 8.09375L70.4961 8.05469V7.99609L70.457 7.95703ZM68.3867 7.89844H68.2891V7.9375H68.3867V7.89844ZM70.1641 9.92969H70.1055V10.0078L70.1641 9.94922V9.92969ZM71.9219 15.418H71.9609V15.4961L71.9219 15.4766V15.418ZM69.2656 15.7891L69.2266 15.75L69.1875 15.7695V15.7891H69.2656ZM68.7383 11.2773L68.6797 11.3359H68.6992L68.7578 11.2773H68.7383ZM80.8672 7.09766L81.3164 6.98047C81.3164 7.04557 81.5052 7.09115 81.8828 7.11719C81.9479 7.46875 81.9805 7.89193 81.9805 8.38672C81.9805 8.46484 81.9023 8.60156 81.7461 8.79688C81.4596 9.07031 81.1797 9.42839 80.9062 9.87109C79.6823 11.0299 78.6276 11.9674 77.7422 12.6836L76.7266 13.3867C76.388 13.8685 75.9974 14.4023 75.5547 14.9883C75.4505 15.1966 75.3984 15.3268 75.3984 15.3789L75.457 15.418L77.1172 15.4961H79.1484C80.1771 15.4961 80.6914 15.457 80.6914 15.3789L80.7109 15.0078L80.8086 14.1094C81.6159 13.9922 82.0977 13.9922 82.2539 14.1094C82.5273 14.1094 82.6445 14.7083 82.6055 15.9062C82.6966 16.3099 82.6315 16.6094 82.4102 16.8047C82.1888 16.987 81.8177 17.0651 81.2969 17.0391V16.9609H81.4727L81.7461 16.7461H81.3555C81.2383 16.8242 80.7305 16.8958 79.832 16.9609C79.168 17.0391 78.2435 17.0781 77.0586 17.0781C75.2747 17.0781 74.1484 16.9674 73.6797 16.7461C73.4453 16.7461 73.3281 16.5833 73.3281 16.2578C73.3021 16.1536 73.2565 15.6068 73.1914 14.6172L75.1445 12.957C77.1367 11.6419 78.4193 10.6133 78.9922 9.87109L79.5781 9.14844V9.03125C77.8464 8.90104 76.7396 8.83594 76.2578 8.83594H75.1445V8.99219C75.1445 9.05729 75.0924 9.18099 74.9883 9.36328L74.9297 9.67578V9.71484L74.9492 10.2422L74.8516 10.2812L74.1289 10.3594C73.4779 10.2161 73.1523 10.099 73.1523 10.0078C73.2305 10.0078 73.3281 9.31771 73.4453 7.9375C73.4714 7.54688 73.5039 7.29948 73.543 7.19531H73.5625L74.2852 7.33203C75.1055 7.26693 77.2995 7.1888 80.8672 7.09766ZM74.9883 16.1211L74.9102 16.1992C74.9102 16.2253 74.9362 16.2383 74.9883 16.2383L77.7617 16.2188L77.8398 16.2383V16.2578L77.7617 16.375V16.3945C79.7539 16.3294 80.75 16.2643 80.75 16.1992V15.9844L80.6719 15.8867C80.0729 15.9779 78.1784 16.056 74.9883 16.1211ZM77.0977 8.58203V8.62109L77.6445 8.66016H78.1523H78.4844H78.8359H79.4414C79.6367 8.66016 79.7344 8.63411 79.7344 8.58203C79.7344 8.50391 79.8451 8.46484 80.0664 8.46484C80.1966 8.38672 80.2617 8.29557 80.2617 8.19141L80.1641 8.15234C79.526 8.15234 79.0703 8.23047 78.7969 8.38672C78.6927 8.41276 78.1263 8.47786 77.0977 8.58203ZM78.8945 10.4961C78.9466 10.4961 79.1419 10.3529 79.4805 10.0664C79.6237 10.0664 79.7474 9.97526 79.8516 9.79297C80.2031 9.54557 80.4375 9.3112 80.5547 9.08984C80.5938 9.08984 80.6133 9.05078 80.6133 8.97266V8.91406L80.5547 8.77734C80.5547 8.67318 80.6003 8.55599 80.6914 8.42578V8.38672C80.5742 8.38672 80.4049 8.59505 80.1836 9.01172C79.3242 9.88411 78.8945 10.3789 78.8945 10.4961ZM73.7188 9.34375L73.6016 9.28516C73.5495 9.42839 73.5234 9.58464 73.5234 9.75391V9.92969L73.5625 9.96875H73.582L73.6602 9.89062V9.71484C73.6602 9.58464 73.7448 9.5 73.9141 9.46094C74.1615 9.08333 74.2852 8.72526 74.2852 8.38672V8.23047L74.168 8.19141C73.9466 8.19141 73.8359 8.39323 73.8359 8.79688C73.8359 9.16146 73.7969 9.34375 73.7188 9.34375ZM76.1992 12.9961V13.0547H76.2578C77.013 12.5599 77.4818 12.0911 77.6641 11.6484H77.6055C77.2799 11.8568 76.8112 12.306 76.1992 12.9961ZM73.4062 14.9297C73.4062 15.0078 73.4453 15.0794 73.5234 15.1445H73.5625C73.6797 15.1445 73.9792 14.9102 74.4609 14.4414V14.4023H74.4414C74.3893 14.4023 74.1159 14.5521 73.6211 14.8516C73.4779 14.8776 73.4062 14.9036 73.4062 14.9297ZM75.3008 13.7773V13.9141C75.4831 13.9141 75.737 13.6536 76.0625 13.1328H76.043C75.8607 13.1328 75.6133 13.3477 75.3008 13.7773ZM74.4414 9.34375V9.36328H74.4609C74.5391 9.36328 74.6497 9.12891 74.793 8.66016L74.8516 8.30859L74.8125 8.23047H74.7734C74.5521 8.63411 74.4414 9.00521 74.4414 9.34375ZM80.418 16.4727L79.9883 16.6094V16.668H80.3008C80.418 16.668 80.4896 16.6354 80.5156 16.5703L80.9453 16.6289H81.043C81.1732 16.5508 81.2383 16.4727 81.2383 16.3945H81.1797C81.1797 16.4466 80.9258 16.4727 80.418 16.4727ZM82.1367 14.4219H82.0586L82.0195 14.9297C82.0195 15.1641 82.0391 15.3529 82.0781 15.4961H82.1172H82.1758V15.418C82.1758 15.3919 82.1888 15.1836 82.2148 14.793L82.1367 14.4219ZM74.4023 9.87109V9.92969L74.4414 9.96875H74.6562L74.7539 9.89062V9.87109C74.7539 9.61068 74.7148 9.48047 74.6367 9.48047C74.5586 9.48047 74.4805 9.61068 74.4023 9.87109ZM73.6797 16.2578H73.7383C73.8424 16.2578 74.0247 16.069 74.2852 15.6914L74.2656 15.6523C73.875 15.8997 73.6797 16.1016 73.6797 16.2578ZM75.2422 8.13281L75.1836 8.17188V8.46484L75.2422 8.48438H75.418C75.6784 8.48438 75.8086 8.46484 75.8086 8.42578C75.444 8.41276 75.2617 8.3737 75.2617 8.30859C75.2747 8.23047 75.3333 8.19141 75.4375 8.19141V8.15234L75.3203 8.13281H75.2422ZM74.0898 15.3008V15.3789H74.1094C74.2266 15.3268 74.3568 15.1966 74.5 14.9883V14.9297H74.4414C74.3763 14.9297 74.2591 15.0534 74.0898 15.3008ZM79.0898 11.0625V11.1211H79.1289C79.3112 10.9909 79.4935 10.8151 79.6758 10.5938H79.6172C79.5391 10.6198 79.3633 10.776 79.0898 11.0625ZM81.8242 16.1406L81.7852 16.2773V16.3945L81.8438 16.4727H81.9805L82.0195 16.3945V16.2773C81.9674 16.1862 81.9023 16.1406 81.8242 16.1406ZM80.2617 7.41016V7.42969H80.5547L80.9062 7.41016V7.3125H80.6914C80.6003 7.3125 80.457 7.34505 80.2617 7.41016ZM81.0039 15.7695V15.8281L81.0625 15.8672H81.1602L81.2383 15.7891V15.6914L81.1797 15.6328H81.1016C81.0365 15.6589 81.0039 15.7044 81.0039 15.7695ZM76.0234 8.11328L75.9453 8.13281V8.17188L76.1211 8.19141H76.4336C76.4336 8.15234 76.2969 8.1263 76.0234 8.11328ZM74.0898 16.4727L74.0117 16.5703L74.0898 16.6289C74.181 16.6289 74.2331 16.6094 74.2461 16.5703V16.4727H74.0898ZM73.5625 15.5742L73.4844 15.6523V15.7695H73.5234C73.5495 15.7695 73.5755 15.7109 73.6016 15.5938L73.582 15.5742H73.5625ZM73.9727 7.68359L73.9336 7.74219V7.76172L73.9727 7.80078H74.0703L74.0898 7.76172V7.74219L74.0703 7.68359H73.9727ZM78.0938 16.2578L78.1328 16.2188H78.2891V16.2383C78.276 16.2904 78.224 16.3164 78.1328 16.3164L78.0938 16.2578ZM80.6523 7.95703H80.5547V7.99609L80.6133 8.09375L80.6914 8.05469V7.99609L80.6523 7.95703ZM78.582 7.89844H78.4844V7.9375H78.582V7.89844ZM80.3594 9.92969H80.3008V10.0078L80.3594 9.94922V9.92969ZM82.1172 15.418H82.1562V15.4961L82.1172 15.4766V15.418ZM79.4609 15.7891L79.4219 15.75L79.3828 15.7695V15.7891H79.4609ZM78.9336 11.2773L78.875 11.3359H78.8945L78.9531 11.2773H78.9336ZM85.6523 6.41406L88.0742 6.35547C88.2826 6.35547 88.7188 6.44661 89.3828 6.62891C90.138 7.34505 90.5872 7.90495 90.7305 8.30859C91.0169 8.60807 91.2448 9.20052 91.4141 10.0859C91.6224 10.2943 91.7266 10.7565 91.7266 11.4727L91.7461 11.9609L91.668 13.8945C91.668 14.2852 91.9089 14.7669 92.3906 15.3398C92.8333 15.7695 93.1198 15.9844 93.25 15.9844V16.0234C93.25 16.1797 93.0221 16.4271 92.5664 16.7656C92.2279 17.1042 92.013 17.2734 91.9219 17.2734H91.9023C91.694 17.2474 91.1667 16.8633 90.3203 16.1211C88.7839 16.7201 88.0091 17.026 87.9961 17.0391C87.4883 17.1953 86.9219 17.2734 86.2969 17.2734H86.1992C85.4961 17.1562 84.8971 16.8828 84.4023 16.4531C84.3112 16.375 84.1224 16.0495 83.8359 15.4766C83.6016 15.1901 83.4844 14.8385 83.4844 14.4219V13.8555C83.4844 13.4909 83.582 13.1523 83.7773 12.8398C83.9466 12.306 84.2396 11.7982 84.6562 11.3164C84.8646 11.069 85.0729 10.9128 85.2812 10.8477C85.9583 10.4831 86.6289 10.3008 87.293 10.3008L88.1719 10.2812H88.2891C88.7839 10.2812 89.1354 10.3529 89.3438 10.4961H89.4609C89.526 10.4961 89.5586 10.4701 89.5586 10.418C89.4154 9.80599 89.181 9.22005 88.8555 8.66016C88.569 8.17839 88.0352 7.9375 87.2539 7.9375L86.4531 7.82031C85.763 7.96354 85.418 8.10677 85.418 8.25C85.1445 8.60156 84.9818 9.03776 84.9297 9.55859C84.9036 9.6237 84.6693 9.65625 84.2266 9.65625L84.1094 9.69531C84.0573 9.69531 83.9922 9.80599 83.9141 10.0273C83.5495 9.97526 83.3672 9.89714 83.3672 9.79297C83.3932 9.71484 83.4388 9.24609 83.5039 8.38672C83.7122 7.78776 84.207 7.23438 84.9883 6.72656C85.3529 6.51823 85.5742 6.41406 85.6523 6.41406ZM87.8398 6.74609L87.8008 6.80469L87.8594 6.88281H87.9766L87.9961 6.84375L87.9375 6.74609H87.8398ZM89.3242 6.90234H89.2852V6.94141C89.3893 7.04557 89.4805 7.09766 89.5586 7.09766H89.5781V7.05859C89.474 6.95443 89.3893 6.90234 89.3242 6.90234ZM86.1992 7V7.05859C86.2122 7.09766 86.2773 7.11719 86.3945 7.11719C86.5117 7.11719 86.6745 7.07812 86.8828 7V6.92188H86.8047C86.5182 6.92188 86.3164 6.94792 86.1992 7ZM84.4414 7.625V7.66406H84.4609C84.5781 7.66406 84.7539 7.54036 84.9883 7.29297V7.23438H84.9688C84.8385 7.23438 84.6628 7.36458 84.4414 7.625ZM87.1562 7.48828L87.0586 7.56641L87.1172 7.66406H87.3711L87.4297 7.60547L87.3125 7.48828H87.1562ZM84.2852 9.07031L84.2266 9.10938V9.40234H84.2461C84.2982 9.38932 84.3242 9.34375 84.3242 9.26562V9.10938L84.2852 9.07031ZM91.375 10.6328H91.3555V10.6719C91.3815 10.776 91.4076 10.8281 91.4336 10.8281L91.4531 10.7305C91.4271 10.6654 91.401 10.6328 91.375 10.6328ZM90.9258 11.3164L90.8672 11.3555V11.4141C90.9193 11.6094 90.9714 11.707 91.0234 11.707H91.0625C91.0625 11.5378 91.0234 11.4076 90.9453 11.3164H90.9258ZM85.2031 11.4336L84.9883 11.5312V11.6289H85.0273C85.1185 11.6289 85.1836 11.5768 85.2227 11.4727V11.4336H85.2031ZM84.9883 13.2891C85.0794 14.0703 85.1901 14.4609 85.3203 14.4609L85.5156 14.7148V14.7344L85.3398 14.7148V14.7734C85.5872 15.112 86.0951 15.4245 86.8633 15.7109C86.9544 15.763 87.0846 15.8021 87.2539 15.8281C87.4883 15.8281 88.3867 15.444 89.9492 14.6758C90.0534 14.6107 90.1055 14.5391 90.1055 14.4609V14.3633C89.9883 13.8294 89.8906 13.2044 89.8125 12.4883L89.7734 12.4688C89.7734 12.3255 89.6302 12.2083 89.3438 12.1172C88.3802 11.8438 87.7227 11.707 87.3711 11.707C86.3815 11.9284 85.7044 12.2604 85.3398 12.7031C85.1055 12.9375 84.9883 13.1328 84.9883 13.2891ZM90.8672 12.0195L90.8086 11.9805V12.0391H90.8672V12.0195ZM90.9453 12.3906H90.8281V12.4688L90.8867 12.5273L90.9453 12.4688V12.3906ZM90.3203 12.8789L90.2617 12.9375L90.3203 13.0156L90.3984 12.9961V12.9375L90.3398 12.8789H90.3203ZM91.0234 12.9375H90.9648V12.957C90.9909 13.4518 91.043 13.6992 91.1211 13.6992L91.1602 13.6602V13.6211C91.1602 13.3477 91.1146 13.1198 91.0234 12.9375ZM90.2617 13.5625L90.2422 13.582V13.6992L90.3008 13.7773H90.3203L90.3984 13.6992V13.582L90.3398 13.5625H90.2617ZM91.9219 15.3984H91.8633V15.5156C91.9154 15.6849 91.974 15.7695 92.0391 15.7695H92.0977V15.7109C92.0456 15.5026 91.987 15.3984 91.9219 15.3984ZM84.7344 15.457L84.6953 15.4961V15.5156L84.7344 15.5547H84.832V15.5156L84.7734 15.457H84.7344ZM91.3164 15.7109L91.2578 15.7695C91.2969 15.8607 91.349 15.9193 91.4141 15.9453H91.4336L91.5117 15.8672V15.8281L91.4141 15.7109H91.3164ZM88.4844 15.9844V16.0234H88.5625C88.7448 16.0234 88.9857 15.9453 89.2852 15.7891V15.7695H89.207C88.7643 15.8216 88.5234 15.8932 88.4844 15.9844ZM91.7461 16.043L91.707 16.1211V16.1602L91.7852 16.2383H91.8633L91.9219 16.1992V16.1602L91.8242 16.043H91.7461ZM86.9219 16.1992L86.8633 16.2578C86.8893 16.3229 86.9414 16.3555 87.0195 16.3555C87.1628 16.3294 87.2344 16.2969 87.2344 16.2578V16.2383L87.1758 16.1992H86.9219ZM84.793 16.4727L84.7344 16.5508C84.7865 16.668 85.112 16.8177 85.7109 17C85.9062 17.0911 86.1667 17.1367 86.4922 17.1367V17.1172C86.4922 17.0781 86.2448 17.0065 85.75 16.9023C85.4635 16.8242 85.1641 16.681 84.8516 16.4727H84.793ZM48.6016 22.8125L49.3633 22.7148C50.0794 22.8451 50.4375 22.9753 50.4375 23.1055C50.6068 23.1836 50.763 23.3529 50.9062 23.6133C51.2448 23.8737 51.6354 24.5703 52.0781 25.7031L52.6836 26.8164C52.918 27.6628 53.0938 28.0859 53.2109 28.0859C53.3672 28.0859 53.6276 27.6693 53.9922 26.8359C54.4349 25.9245 55.0729 24.8112 55.9062 23.4961C56.1536 23.4049 56.2773 23.3073 56.2773 23.2031C56.3555 23.0208 56.4596 22.9036 56.5898 22.8516L56.8438 22.8711C57.0391 22.806 57.2409 22.7604 57.4492 22.7344C58.3346 22.8516 58.7773 22.9883 58.7773 23.1445V23.1641L58.8164 27.7344L58.7773 29.0039C58.8424 29.5378 58.9531 30.9115 59.1094 33.125L59.0703 33.3398C59.1745 33.4049 59.3372 33.4375 59.5586 33.4375C59.832 33.4766 59.9688 33.6003 59.9688 33.8086V33.9258C59.9688 34.7852 59.9167 35.2148 59.8125 35.2148H59.7734C59.5651 35.1107 59.3503 35.0586 59.1289 35.0586H57.9766C56.7786 35.0586 56.1797 34.9349 56.1797 34.6875L56.2383 34.1992V34.1211C56.2383 34.069 56.1927 33.9779 56.1016 33.8477V33.7305C56.1016 33.6654 56.3164 33.5938 56.7461 33.5156L56.8633 33.3789L56.8047 33.2617V32.9688C56.8047 32.7734 56.8698 32.4544 57 32.0117L57.0781 31.9141C56.987 31.8099 56.9414 31.276 56.9414 30.3125V29.1211L56.9609 28.5352C56.9089 28.3919 56.8828 28.2031 56.8828 27.9688V27.6758C56.8828 27.3893 56.9219 26.9922 57 26.4844C57 26.3281 57.0651 26.1198 57.1953 25.8594L57.2148 25.7422C57.1237 25.2995 57.0781 24.9805 57.0781 24.7852H57.0195C56.7982 25.0065 56.4466 25.4948 55.9648 26.25C55.418 27.2786 54.9232 28.099 54.4805 28.7109L53.6992 29.8242C53.6211 29.9414 53.5104 30 53.3672 30L53.1328 29.9023C53.0026 29.9284 52.9049 29.9609 52.8398 30C52.6836 30 52.5924 29.8503 52.5664 29.5508C52.4232 29.2513 52.2214 28.9518 51.9609 28.6523C51.7526 28.4049 51.3555 27.6628 50.7695 26.4258L50.5547 26.0352L50.3008 25.5859L50.3203 25.5664H50.4375C50.5026 25.5664 50.5547 25.651 50.5938 25.8203L50.6133 25.8594H50.6719V25.7812C50.6719 25.3906 50.4896 25.0391 50.125 24.7266H50.0664V24.8242H49.9102V24.9414L49.8906 25.1367V25.332C50.099 28.1966 50.2031 30.6576 50.2031 32.7148C50.1771 32.7799 50.1315 32.8125 50.0664 32.8125C50.0143 32.8125 49.9883 32.7409 49.9883 32.5977L49.9492 32.5781H49.9102L49.8516 32.9883C50.0208 33.0794 50.1055 33.1901 50.1055 33.3203L50.0664 33.5547C49.8581 33.5547 49.7539 33.5091 49.7539 33.418H49.6953L49.6367 33.5156V33.6133C49.6367 33.6654 49.8971 33.75 50.418 33.8672H50.4961C50.5872 33.8672 50.6849 33.8477 50.7891 33.8086C51.3229 33.9128 51.5898 34.0104 51.5898 34.1016V34.1797L51.4727 34.1992C51.3815 34.1992 51.2448 34.1276 51.0625 33.9844H50.9648C50.6523 34.0234 50.4961 34.0755 50.4961 34.1406C50.5091 34.1927 50.5547 34.2188 50.6328 34.2188H50.9062C51.2969 34.2578 51.4922 34.3294 51.4922 34.4336L51.5312 34.6289V34.7461C51.5312 34.9154 51.3945 35.013 51.1211 35.0391C50.9258 34.9479 50.724 34.9023 50.5156 34.9023V34.9219C50.5156 34.9609 50.5807 34.9805 50.7109 34.9805C50.8802 35.0195 50.9648 35.0586 50.9648 35.0977L50.75 35.1172C50.3594 35.1172 49.5781 35.0456 48.4062 34.9023L47.918 35.0391C47.6836 34.987 47.5664 34.8893 47.5664 34.7461V34.6289C47.4102 34.6289 47.306 34.4661 47.2539 34.1406L47.2344 34.1016V34.0039C47.3776 33.7435 47.638 33.6133 48.0156 33.6133C48.3411 33.5352 48.5039 33.4766 48.5039 33.4375V33.418L48.1719 24.375L48.2109 23.5352L48.1328 23.2227C48.1328 22.9492 48.2891 22.8125 48.6016 22.8125ZM49.9883 24.0039C50.1445 24.2904 50.3984 24.6289 50.75 25.0195L51.4727 26.4648H51.5312C51.5312 26.2435 51.2773 25.5859 50.7695 24.4922C50.7695 24.401 50.6393 24.2383 50.3789 24.0039L50.3398 23.8867H50.2227C50.0664 23.8997 49.9883 23.9388 49.9883 24.0039ZM49.6562 30.1367C49.6302 30.2148 49.6172 30.2995 49.6172 30.3906V31.4844L49.6367 32.5195L49.6562 32.5586H49.6953C49.8255 32.5586 49.9102 32.4674 49.9492 32.2852V32.168C49.8971 32.168 49.8581 32.0964 49.832 31.9531L49.8516 31.6016V31.582C49.8516 31.2695 49.819 31.0352 49.7539 30.8789L49.8125 30.6055C49.7995 30.319 49.7474 30.1628 49.6562 30.1367ZM54.5781 26.875L54.6172 26.9141C54.7214 26.849 54.8581 26.6211 55.0273 26.2305C55.1445 26.1133 55.2487 25.8854 55.3398 25.5469V25.5078L55.2617 25.4688C55.0794 25.4688 54.8516 25.9375 54.5781 26.875ZM58.3281 26.875C58.3542 27.7214 58.4128 28.1641 58.5039 28.2031L58.543 28.1641V27.5391C58.543 27.0443 58.5234 26.6732 58.4844 26.4258H58.4258C58.3607 26.4258 58.3281 26.5755 58.3281 26.875ZM49.5781 27.7344C49.6042 28.4245 49.6497 28.7695 49.7148 28.7695H49.7539V28.5156C49.7539 28.112 49.7409 27.7018 49.7148 27.2852H49.6953C49.6432 27.2852 49.6042 27.4349 49.5781 27.7344ZM49.2852 24.7852H49.1875L49.168 24.9023V25.5859C49.168 25.8203 49.2005 25.9375 49.2656 25.9375C49.3307 25.9375 49.3633 25.7682 49.3633 25.4297C49.3633 25.1562 49.3372 24.9414 49.2852 24.7852ZM58.543 31.9141C58.4648 31.9922 58.4258 32.1419 58.4258 32.3633V32.6562L58.5039 32.7734H58.6211C58.6602 32.7734 58.6862 32.7083 58.6992 32.5781C58.6471 32.1354 58.5951 31.9141 58.543 31.9141ZM48.8359 30.8594L48.8555 30.8789C48.9727 30.8789 49.0312 30.6836 49.0312 30.293V29.668L49.0117 29.5508C48.9466 29.5508 48.888 29.987 48.8359 30.8594ZM48.543 23.7695L48.5234 23.7891V23.8086C48.5755 24.4076 48.6341 24.707 48.6992 24.707C48.7513 24.6159 48.7773 24.4987 48.7773 24.3555V24.1992C48.7773 23.9258 48.6992 23.7826 48.543 23.7695ZM47.5664 33.8477L47.4883 33.9062V34.0039C47.4883 34.0951 47.5664 34.2057 47.7227 34.3359H47.7617C47.8008 34.3359 47.8268 34.2904 47.8398 34.1992C47.8268 33.9648 47.7878 33.8477 47.7227 33.8477H47.5664ZM57.8984 31.6016H57.8203C57.7292 31.8359 57.6836 32.0443 57.6836 32.2266C57.7227 32.3828 57.7682 32.4609 57.8203 32.4609H57.8594L57.8984 31.6406V31.6016ZM49.0312 23.5352H49.0117V23.6523C49.1029 24.1341 49.194 24.375 49.2852 24.375H49.3438V24.2969L49.207 23.9648C49.207 23.7695 49.1484 23.6263 49.0312 23.5352ZM48.8555 32.2852V32.5977L48.9336 32.6367H48.9727L49.0312 32.207L49.0117 32.0703H48.9727C48.9206 32.0703 48.8815 32.1419 48.8555 32.2852ZM49.1484 34.7266L49.0312 34.7852C49.1224 34.8372 49.2331 34.8633 49.3633 34.8633H49.4219L49.6172 34.8242V34.7461L49.1484 34.7266ZM56.6484 23.5938L56.668 23.6133C56.707 23.6133 56.7982 23.5221 56.9414 23.3398V23.2227H56.8828C56.7786 23.2878 56.7005 23.4115 56.6484 23.5938ZM48.9727 28.8867H48.9336V29.0625V29.082C48.9336 29.2773 48.9596 29.375 49.0117 29.375L49.0703 29.1797C49.0443 28.9844 49.0117 28.8867 48.9727 28.8867ZM56.6289 34.0625L56.5703 34.1406V34.2188L56.6094 34.2578L56.8828 34.1992V34.1406C56.8698 34.0885 56.8242 34.0625 56.7461 34.0625H56.6289ZM48.7383 26.4648H48.6602V26.9531L48.7188 26.9922H48.7383L48.7773 26.6797V26.6211L48.7383 26.4648ZM53.6406 28.5352H53.582C53.5039 28.6523 53.4648 28.7435 53.4648 28.8086V28.8477H53.5234C53.5885 28.8477 53.6276 28.763 53.6406 28.5938V28.5352ZM49.9102 34.8242H49.7734V34.8633L50.0078 34.9219H50.3203V34.8633L49.9102 34.8242ZM49.5391 23.3203L49.4219 23.3398V23.3984C49.4219 23.4245 49.474 23.4505 49.5781 23.4766C49.6562 23.4505 49.6953 23.4245 49.6953 23.3984V23.3594L49.6367 23.3203H49.5391ZM56.4141 24.0039H56.4531H56.4727C56.5508 23.9128 56.5898 23.8346 56.5898 23.7695V23.7305H56.5703C56.4661 23.7956 56.4141 23.8867 56.4141 24.0039ZM56.7461 34.6289L56.6094 34.668V34.7266L56.668 34.7461H56.8828V34.7266C56.8568 34.6615 56.8112 34.6289 56.7461 34.6289ZM58.6211 32.9688H58.4453V33.0078L58.543 33.125H58.582L58.6797 33.0469V33.0078L58.6211 32.9688ZM50.2031 23.4766V23.4961H50.418L50.4375 23.4766V23.4375L50.418 23.3984C50.2878 23.3984 50.2161 23.4245 50.2031 23.4766ZM57.6836 26.4844V26.543L57.7227 26.6016C57.7747 26.5885 57.8008 26.543 57.8008 26.4648V26.3477H57.7617C57.7096 26.3607 57.6836 26.4062 57.6836 26.4844ZM49.6172 29.4141V29.4922L49.6367 29.7461H49.6953V29.6094C49.6953 29.4792 49.6693 29.4141 49.6172 29.4141ZM49.832 33.1641L49.7734 33.2031L49.832 33.2617H49.9102L49.9492 33.2031L49.9102 33.1641H49.832ZM57.293 32.9688H57.2344L57.2148 33.0859V33.125H57.2734L57.293 33.0664V32.9688ZM58.0742 33.1836L57.9961 33.2617L58.0352 33.3203H58.1523V33.2617L58.0742 33.1836ZM57.6836 27.0312H57.6445V27.1094L57.6836 27.2266H57.7227V27.0898L57.6836 27.0312ZM57.7617 26.1328H57.8008C57.8398 26.1068 57.8594 26.0482 57.8594 25.957C57.7943 25.9831 57.7617 26.0417 57.7617 26.1328ZM57.957 30.6641H57.8984L57.8789 30.7227L57.957 30.7812L57.9961 30.7227V30.7031L57.957 30.6641ZM57.9375 32.7734H57.8203V32.8516H57.8789L57.9375 32.793V32.7734ZM47.8398 34.6094H47.7617V34.668L47.8008 34.7266L47.8398 34.6875H47.8594L47.8398 34.6094ZM48.5039 23.3398H48.4453V23.3984L48.4844 23.4375H48.5039V23.3398ZM48.8359 33.0469H48.7969V33.1445H48.8555V33.0859L48.8359 33.0469ZM62.8008 24.4141L65.2227 24.3555C65.431 24.3555 65.8672 24.4466 66.5312 24.6289C67.2865 25.3451 67.7357 25.9049 67.8789 26.3086C68.1654 26.6081 68.3932 27.2005 68.5625 28.0859C68.7708 28.2943 68.875 28.7565 68.875 29.4727L68.8945 29.9609L68.8164 31.8945C68.8164 32.2852 69.0573 32.7669 69.5391 33.3398C69.9818 33.7695 70.2682 33.9844 70.3984 33.9844V34.0234C70.3984 34.1797 70.1706 34.4271 69.7148 34.7656C69.3763 35.1042 69.1615 35.2734 69.0703 35.2734H69.0508C68.8424 35.2474 68.3151 34.8633 67.4688 34.1211C65.9323 34.7201 65.1576 35.026 65.1445 35.0391C64.6367 35.1953 64.0703 35.2734 63.4453 35.2734H63.3477C62.6445 35.1562 62.0456 34.8828 61.5508 34.4531C61.4596 34.375 61.2708 34.0495 60.9844 33.4766C60.75 33.1901 60.6328 32.8385 60.6328 32.4219V31.8555C60.6328 31.4909 60.7305 31.1523 60.9258 30.8398C61.0951 30.306 61.388 29.7982 61.8047 29.3164C62.013 29.069 62.2214 28.9128 62.4297 28.8477C63.1068 28.4831 63.7773 28.3008 64.4414 28.3008L65.3203 28.2812H65.4375C65.9323 28.2812 66.2839 28.3529 66.4922 28.4961H66.6094C66.6745 28.4961 66.707 28.4701 66.707 28.418C66.5638 27.806 66.3294 27.2201 66.0039 26.6602C65.7174 26.1784 65.1836 25.9375 64.4023 25.9375L63.6016 25.8203C62.9115 25.9635 62.5664 26.1068 62.5664 26.25C62.293 26.6016 62.1302 27.0378 62.0781 27.5586C62.0521 27.6237 61.8177 27.6562 61.375 27.6562L61.2578 27.6953C61.2057 27.6953 61.1406 27.806 61.0625 28.0273C60.6979 27.9753 60.5156 27.8971 60.5156 27.793C60.5417 27.7148 60.5872 27.2461 60.6523 26.3867C60.8607 25.7878 61.3555 25.2344 62.1367 24.7266C62.5013 24.5182 62.7227 24.4141 62.8008 24.4141ZM64.9883 24.7461L64.9492 24.8047L65.0078 24.8828H65.125L65.1445 24.8438L65.0859 24.7461H64.9883ZM66.4727 24.9023H66.4336V24.9414C66.5378 25.0456 66.6289 25.0977 66.707 25.0977H66.7266V25.0586C66.6224 24.9544 66.5378 24.9023 66.4727 24.9023ZM63.3477 25V25.0586C63.3607 25.0977 63.4258 25.1172 63.543 25.1172C63.6602 25.1172 63.8229 25.0781 64.0312 25V24.9219H63.9531C63.6667 24.9219 63.4648 24.9479 63.3477 25ZM61.5898 25.625V25.6641H61.6094C61.7266 25.6641 61.9023 25.5404 62.1367 25.293V25.2344H62.1172C61.987 25.2344 61.8112 25.3646 61.5898 25.625ZM64.3047 25.4883L64.207 25.5664L64.2656 25.6641H64.5195L64.5781 25.6055L64.4609 25.4883H64.3047ZM61.4336 27.0703L61.375 27.1094V27.4023H61.3945C61.4466 27.3893 61.4727 27.3438 61.4727 27.2656V27.1094L61.4336 27.0703ZM68.5234 28.6328H68.5039V28.6719C68.5299 28.776 68.556 28.8281 68.582 28.8281L68.6016 28.7305C68.5755 28.6654 68.5495 28.6328 68.5234 28.6328ZM68.0742 29.3164L68.0156 29.3555V29.4141C68.0677 29.6094 68.1198 29.707 68.1719 29.707H68.2109C68.2109 29.5378 68.1719 29.4076 68.0938 29.3164H68.0742ZM62.3516 29.4336L62.1367 29.5312V29.6289H62.1758C62.2669 29.6289 62.332 29.5768 62.3711 29.4727V29.4336H62.3516ZM62.1367 31.2891C62.2279 32.0703 62.3385 32.4609 62.4688 32.4609L62.6641 32.7148V32.7344L62.4883 32.7148V32.7734C62.7357 33.112 63.2435 33.4245 64.0117 33.7109C64.1029 33.763 64.2331 33.8021 64.4023 33.8281C64.6367 33.8281 65.5352 33.444 67.0977 32.6758C67.2018 32.6107 67.2539 32.5391 67.2539 32.4609V32.3633C67.1367 31.8294 67.0391 31.2044 66.9609 30.4883L66.9219 30.4688C66.9219 30.3255 66.7786 30.2083 66.4922 30.1172C65.5286 29.8438 64.8711 29.707 64.5195 29.707C63.5299 29.9284 62.8529 30.2604 62.4883 30.7031C62.2539 30.9375 62.1367 31.1328 62.1367 31.2891ZM68.0156 30.0195L67.957 29.9805V30.0391H68.0156V30.0195ZM68.0938 30.3906H67.9766V30.4688L68.0352 30.5273L68.0938 30.4688V30.3906ZM67.4688 30.8789L67.4102 30.9375L67.4688 31.0156L67.5469 30.9961V30.9375L67.4883 30.8789H67.4688ZM68.1719 30.9375H68.1133V30.957C68.1393 31.4518 68.1914 31.6992 68.2695 31.6992L68.3086 31.6602V31.6211C68.3086 31.3477 68.263 31.1198 68.1719 30.9375ZM67.4102 31.5625L67.3906 31.582V31.6992L67.4492 31.7773H67.4688L67.5469 31.6992V31.582L67.4883 31.5625H67.4102ZM69.0703 33.3984H69.0117V33.5156C69.0638 33.6849 69.1224 33.7695 69.1875 33.7695H69.2461V33.7109C69.194 33.5026 69.1354 33.3984 69.0703 33.3984ZM61.8828 33.457L61.8438 33.4961V33.5156L61.8828 33.5547H61.9805V33.5156L61.9219 33.457H61.8828ZM68.4648 33.7109L68.4062 33.7695C68.4453 33.8607 68.4974 33.9193 68.5625 33.9453H68.582L68.6602 33.8672V33.8281L68.5625 33.7109H68.4648ZM65.6328 33.9844V34.0234H65.7109C65.8932 34.0234 66.1341 33.9453 66.4336 33.7891V33.7695H66.3555C65.9128 33.8216 65.6719 33.8932 65.6328 33.9844ZM68.8945 34.043L68.8555 34.1211V34.1602L68.9336 34.2383H69.0117L69.0703 34.1992V34.1602L68.9727 34.043H68.8945ZM64.0703 34.1992L64.0117 34.2578C64.0378 34.3229 64.0898 34.3555 64.168 34.3555C64.3112 34.3294 64.3828 34.2969 64.3828 34.2578V34.2383L64.3242 34.1992H64.0703ZM61.9414 34.4727L61.8828 34.5508C61.9349 34.668 62.2604 34.8177 62.8594 35C63.0547 35.0911 63.3151 35.1367 63.6406 35.1367V35.1172C63.6406 35.0781 63.3932 35.0065 62.8984 34.9023C62.612 34.8242 62.3125 34.681 62 34.4727H61.9414ZM70.6719 20.2734L70.7891 20.2539H70.9453C72.0911 20.3841 72.7682 20.5469 72.9766 20.7422C73.0677 20.7422 73.1523 20.9961 73.2305 21.5039L73.1328 21.6797V21.7383C73.276 21.9076 73.3737 22.7279 73.4258 24.1992C73.4258 26.7904 73.4974 28.4635 73.6406 29.2188H73.7188C74.4219 28.6458 75.5091 27.8581 76.9805 26.8555C77.0977 26.8555 77.1953 26.276 77.2734 25.1172C77.2734 24.8438 77.4036 24.707 77.6641 24.707L78.4453 24.6484C79.6172 24.6484 80.3203 24.7721 80.5547 25.0195V25.0586L80.4961 25.1172C80.2617 25.026 80.0794 24.9805 79.9492 24.9805L79.8906 25.0586V25.0781C79.8906 25.1562 80.0794 25.2148 80.457 25.2539C80.5612 25.2539 80.6133 25.5599 80.6133 26.1719C80.6133 26.4193 80.5156 26.543 80.3203 26.543C80.2682 26.543 80.1706 26.6341 80.0273 26.8164L79.9688 26.8359L79.5781 26.8164H79.5C79.5 26.9596 79.3503 27.1029 79.0508 27.2461C78.9987 27.2461 78.9727 27.2786 78.9727 27.3438L79.0508 27.4805L77.1758 28.7695L77.1562 28.8281C77.1693 28.9062 77.8138 30.2279 79.0898 32.793C79.2721 33.1706 79.3893 33.4701 79.4414 33.6914H79.3242L79.207 33.5742H79.1484C79.1484 33.7305 79.3958 33.8086 79.8906 33.8086C80.763 33.8086 81.1992 33.8867 81.1992 34.043L81.043 34.2383C81.2122 34.5247 81.2969 34.9479 81.2969 35.5078C81.2969 35.6901 81.2057 35.7812 81.0234 35.7812L80.8477 35.8008C80.5352 35.7487 79.7734 35.7227 78.5625 35.7227H78.4453C78.2891 35.7227 78.1719 35.5208 78.0938 35.1172C78.0156 34.4401 77.8854 33.8216 77.7031 33.2617C77.4036 32.5846 76.9674 31.6797 76.3945 30.5469C76.1732 29.8958 76.0039 29.5703 75.8867 29.5703C75.6654 29.5964 75.3138 29.7982 74.832 30.1758C74.6628 30.319 74.5391 30.3906 74.4609 30.3906C74.3828 30.3646 74.3438 30.3385 74.3438 30.3125V30.293L74.4023 30.1953V30.1758H74.2852C74.207 30.1758 74.1224 30.3516 74.0312 30.7031L74.0508 30.8203C73.9466 30.8854 73.8945 30.9961 73.8945 31.1523L73.9336 33.2422C73.9336 33.4115 74.2135 33.5221 74.7734 33.5742C74.8646 33.6523 75.0664 33.7435 75.3789 33.8477L75.457 34.043L75.4375 34.3359V34.5508L75.4961 34.8242V34.8633C75.444 34.9674 75.3464 35.0521 75.2031 35.1172L75.1836 35.0977H75.0664V35.1758C75.0664 35.2669 75.1576 35.3451 75.3398 35.4102V35.4492C75.3398 35.4883 75.2617 35.5208 75.1055 35.5469L74.1875 35.3125C72.9245 35.2474 72.1042 35.1758 71.7266 35.0977L71.4531 35.1562C71.2839 35.0781 71.1992 34.8698 71.1992 34.5312V34.4141L71.1797 34.3945C71.1797 34.1732 71.2773 33.9909 71.4727 33.8477H71.5508V34.1406L71.6289 34.2188H71.8828L71.8047 34.1211V34.0625L71.9609 34.043H72.1562L71.9219 33.8086L72.1953 33.75V33.6914C72.1823 33.6523 72.1172 33.6328 72 33.6328H71.9219L71.5117 33.6914V33.6523C71.5117 33.5612 71.8047 33.4701 72.3906 33.3789C72.5339 33.3398 72.7552 33.3008 73.0547 33.2617L73.1133 33.1836V33.1641C73.1133 33.138 73.0221 33.125 72.8398 33.125C72.7357 33.125 72.6836 32.5651 72.6836 31.4453C72.6055 30.0911 72.4818 29.1602 72.3125 28.6523C72.2344 25.4102 72.1302 23.4766 72 22.8516C72 22.8125 71.7721 22.7734 71.3164 22.7344L70.75 22.8711C70.6068 22.7279 70.5286 22.6107 70.5156 22.5195L70.4766 21.3086L70.457 21.2305C70.4831 21.0352 70.5091 20.9375 70.5352 20.9375L70.75 20.9766V20.9375C70.75 20.8854 70.6979 20.7878 70.5938 20.6445V20.5469C70.6979 20.5469 70.75 20.5273 70.75 20.4883L70.6719 20.3516V20.2734ZM72.4883 21.3867V21.4258C72.5404 21.556 72.6185 21.6211 72.7227 21.6211C72.8138 21.5169 72.8594 21.3997 72.8594 21.2695L72.7812 21.25C72.638 21.25 72.5404 21.2956 72.4883 21.3867ZM71.2578 21.6992V21.7383C71.2578 21.7904 71.3555 21.8359 71.5508 21.875V21.9141C71.3034 21.9271 71.1797 21.9661 71.1797 22.0312V22.1094L71.2383 22.168H71.4336C71.6289 22.168 71.7721 22.0508 71.8633 21.8164L71.9414 21.7383C71.9414 21.6602 71.7852 21.6211 71.4727 21.6211H71.3945C71.3034 21.6341 71.2578 21.6602 71.2578 21.6992ZM72.8008 23.418L72.7617 23.4961V23.8867C72.7617 24.1992 72.7943 24.3555 72.8594 24.3555H72.8789L72.9375 24.2969V24.0234C72.9245 23.6198 72.8789 23.418 72.8008 23.418ZM77.957 24.7461L77.8398 24.7656V24.8242L77.8594 24.8828H77.957L77.9961 24.8242V24.7852L77.957 24.7461ZM77.4883 25.8789C77.5013 26.0482 77.5273 26.1328 77.5664 26.1328H77.7031C77.7422 26.1328 77.7617 26.1068 77.7617 26.0547L77.6641 25.8203L77.7617 25.4688V25.4102H77.7227C77.5664 25.4883 77.4883 25.6445 77.4883 25.8789ZM79.2656 26.0352C79.2656 26.0742 79.474 26.1068 79.8906 26.1328C80.0339 26.1068 80.1055 26.0742 80.1055 26.0352V25.957H79.9688H79.5781C79.3698 25.957 79.2656 25.9831 79.2656 26.0352ZM72.8008 26.25H72.7617V26.3477L72.8008 26.3867L72.8789 26.3086L72.8008 26.25ZM77.4102 26.3086L77.4883 26.3867H77.5078C77.612 26.3867 77.6706 26.3607 77.6836 26.3086V26.25H77.6055C77.5013 26.25 77.4362 26.2695 77.4102 26.3086ZM77.2148 27.207V27.2266H77.2344C77.2865 27.2266 77.4883 27.1094 77.8398 26.875C77.9701 26.862 78.0352 26.8229 78.0352 26.7578V26.6797H77.918C77.7617 26.6797 77.5273 26.8555 77.2148 27.207ZM77.1758 28.0664V28.125H77.2148C77.6966 27.9948 78.3086 27.6172 79.0508 26.9922L79.0898 26.9141H79.0508C78.3997 27.1484 77.7747 27.5326 77.1758 28.0664ZM73.8164 29.4922V29.5508H73.8945C74.0638 29.5508 74.207 29.4727 74.3242 29.3164V29.2578C74.1419 29.2578 73.9727 29.3359 73.8164 29.4922ZM76.1797 29.4531C76.2708 29.7005 76.3685 29.8242 76.4727 29.8242H76.4922V29.8047C76.4792 29.5182 76.3945 29.375 76.2383 29.375C76.1992 29.375 76.1797 29.401 76.1797 29.4531ZM73.2891 29.5117L73.2305 29.6094V29.6289H73.2891L73.3281 29.5703V29.5117H73.2891ZM74.6172 29.9414V29.9805H74.6562C74.9167 29.8763 75.1445 29.7331 75.3398 29.5508V29.5117C74.8581 29.7201 74.6172 29.8633 74.6172 29.9414ZM73.25 30.5078V30.6836L73.2891 30.7227H73.3477C73.4128 30.6966 73.4453 30.625 73.4453 30.5078V30.4688C73.4453 30.3255 73.4193 30.1823 73.3672 30.0391H73.3477C73.2826 30.0391 73.25 30.1953 73.25 30.5078ZM76.9219 30.4883H76.8633V30.5078C76.9935 31.0026 77.2279 31.5495 77.5664 32.1484H77.6641V32.0898C77.6641 31.8164 77.4167 31.2826 76.9219 30.4883ZM73.2305 31.2695V31.543L73.2891 31.582C73.3932 31.582 73.4453 31.5169 73.4453 31.3867V31.0742L73.4062 31.0352H73.3477C73.2695 31.0482 73.2305 31.1263 73.2305 31.2695ZM77.957 31.1914H77.8984V31.2305L77.9766 31.3086H77.9961V31.2305L77.957 31.1914ZM73.4453 32.0117H73.3672L73.3477 32.1289V32.3242H73.3672C73.4193 32.3112 73.4453 32.2461 73.4453 32.1289V32.0117ZM77.7617 32.3633H77.7227V32.4023C77.8268 32.7279 77.9375 32.9297 78.0547 33.0078H78.1328C78.1328 32.9036 78.0156 32.6888 77.7812 32.3633H77.7617ZM73.25 33.1836L73.3477 33.2812H73.3672C73.4323 33.2552 73.4648 33.2031 73.4648 33.125C73.4648 33.0339 73.4453 32.9883 73.4062 32.9883C73.3021 33.0534 73.25 33.1185 73.25 33.1836ZM78.5234 33.6523V33.6914L78.582 33.7695H78.7383L78.8164 33.6914C78.7773 33.6133 78.7188 33.5742 78.6406 33.5742C78.5625 33.5872 78.5234 33.6133 78.5234 33.6523ZM75.2031 34.0039H75.1445V34.043L75.2227 34.1016H75.2422V34.043L75.2031 34.0039ZM74.4805 34.2383C74.5716 34.4076 74.7083 34.4922 74.8906 34.4922H74.9102L74.9688 34.4336C74.9167 34.2773 74.8516 34.1732 74.7734 34.1211H74.6953C74.5911 34.1211 74.5195 34.1602 74.4805 34.2383ZM80.9258 34.1992H80.8672V34.2969L80.9258 34.3359H80.9844V34.2383L80.9258 34.1992ZM73.2109 34.2383H73.1719V34.2969H73.25L73.2109 34.2383ZM73.8555 34.2383L73.8164 34.2969H73.9141L73.8555 34.2383ZM71.7461 34.4727V34.4922L71.7656 34.5312V34.5508L72.6836 34.5703H72.8008C73.2174 34.5703 73.4258 34.5378 73.4258 34.4727V34.4336C73.4258 34.4076 73.2826 34.388 72.9961 34.375C72.2669 34.401 71.8503 34.4336 71.7461 34.4727ZM79.6953 34.4336L79.6367 34.4922L79.7344 34.5703H79.8125L79.8906 34.4922L79.832 34.4336H79.6953ZM80.2227 34.5312H80.0273V34.5508L80.125 34.6094H80.2227V34.5312ZM80.9258 34.8242V35.1562H80.9453C80.9974 35.1562 81.0234 35.0195 81.0234 34.7461V34.6094C80.9583 34.6354 80.9258 34.707 80.9258 34.8242ZM74.0312 34.6289L73.9727 34.668V34.7266L74.2656 34.7461H74.3828V34.7266C74.3828 34.6615 74.2656 34.6289 74.0312 34.6289ZM72.3711 34.7852L72.3125 34.8242L74.4219 35.1172V35.0586C74.4219 34.8763 74.0247 34.7852 73.2305 34.7852H72.3711ZM74.6953 35.0391L74.6172 35.0586V35.0977L74.6562 35.1562H74.8125L74.8516 35.0977C74.8385 35.0586 74.7865 35.0391 74.6953 35.0391ZM79.5391 35.4492V35.4688H79.6172L80.0273 35.5078L80.4961 35.4688H80.5547L80.6133 35.4297V35.4102L80.4961 35.3906H79.7344C79.6042 35.3906 79.5391 35.4102 79.5391 35.4492ZM86.5508 25.1953C87.0977 25.1953 87.7617 25.4297 88.543 25.8984C89.207 26.3932 89.5391 26.7318 89.5391 26.9141C90.0599 28.0078 90.3203 28.6654 90.3203 28.8867L90.3398 29.043C90.1445 29.4987 90.0469 29.8112 90.0469 29.9805L89.9297 30H88.2695C88.1133 30 87.9245 30.0195 87.7031 30.0586C85.8281 29.9023 84.513 29.8242 83.7578 29.8242H83.3477C83.1914 30.0586 83.1133 30.2279 83.1133 30.332C83.2044 30.4753 83.25 30.7031 83.25 31.0156C83.25 31.5104 83.3281 31.8034 83.4844 31.8945L83.5039 31.9922V32.0117L83.3867 31.9531V32.0117L83.5625 32.207C83.5625 32.3763 83.6797 32.5911 83.9141 32.8516C84.3438 33.6068 84.8125 34.0755 85.3203 34.2578C85.75 34.401 86.2383 34.4727 86.7852 34.4727C86.8763 34.4727 87.0651 34.388 87.3516 34.2188C87.5859 34.1667 88.0807 33.7435 88.8359 32.9492V32.8906C88.8359 32.8646 88.7448 32.8385 88.5625 32.8125L88.5234 32.7148C88.8229 32.1419 89.181 31.7643 89.5977 31.582C89.7148 31.6992 89.9557 31.8815 90.3203 32.1289C90.6068 32.5716 90.9909 33.0924 91.4727 33.6914V33.7695C91.056 34.3164 90.7565 34.5898 90.5742 34.5898H90.4961C90.4961 34.3034 90.3203 34.1406 89.9688 34.1016C89.9036 34.1016 89.6172 34.3164 89.1094 34.7461C88.8099 34.9805 88.2956 35.2018 87.5664 35.4102C86.7201 35.5794 86.1211 35.6641 85.7695 35.6641L84.6562 35.2734C84.0312 35.2734 83.4583 34.9349 82.9375 34.2578C82.7161 34.0234 82.5339 33.7435 82.3906 33.418C82.3906 33.3138 82.2474 32.7734 81.9609 31.7969C81.8698 31.4193 81.8242 31.0547 81.8242 30.7031V30.6836C81.8242 28.9518 82.3451 27.4349 83.3867 26.1328C83.5169 25.8073 83.8164 25.5664 84.2852 25.4102C84.5977 25.319 84.9753 25.2474 85.418 25.1953C85.5352 25.1432 85.9128 25.1432 86.5508 25.1953ZM84.7539 25.6055V25.625H84.793C85.0013 25.625 85.3919 25.5534 85.9648 25.4102C86.082 25.3971 86.1406 25.3646 86.1406 25.3125L86.082 25.2539H86.0625C85.6849 25.2539 85.2617 25.3581 84.793 25.5664L84.7539 25.6055ZM83.9727 25.9375V25.957L84.0312 25.9961H84.0508C84.3112 25.931 84.4414 25.8659 84.4414 25.8008V25.6836L84.3633 25.6055H84.3242C84.0898 25.6836 83.9727 25.7943 83.9727 25.9375ZM86.9805 25.7422H86.3945V25.7812C86.3945 25.8333 86.6615 25.8724 87.1953 25.8984H87.2148V25.8203C87.2148 25.7943 87.1367 25.7682 86.9805 25.7422ZM85.5938 26.0352V26.0547C85.5938 26.1068 85.8607 26.1719 86.3945 26.25L86.4336 26.2305V26.1523C86.3294 26.0091 86.1536 25.9375 85.9062 25.9375H85.8477C85.6784 25.9505 85.5938 25.9831 85.5938 26.0352ZM86.7852 26.1523V26.1719C87.5273 26.6016 87.9245 26.8164 87.9766 26.8164H87.9961L88.1914 26.7383L88.3086 26.7773L88.3281 26.7383V26.7188C88.276 26.6797 88.1654 26.6406 87.9961 26.6016L87.6055 26.4258C87.5013 26.2044 87.293 26.0938 86.9805 26.0938H86.9219C86.8307 26.1068 86.7852 26.1263 86.7852 26.1523ZM84.4609 26.7188C84.5911 26.6146 84.8516 26.5039 85.2422 26.3867V26.3477L85.2227 26.3086H85.0273C84.6497 26.4128 84.4609 26.5495 84.4609 26.7188ZM83.4258 28.0078V28.0664C83.4258 28.2096 84.6107 28.3724 86.9805 28.5547L87.1758 28.6133L87.4297 28.5938C87.9505 28.763 88.3021 28.8477 88.4844 28.8477C88.4844 28.8867 88.5234 28.9193 88.6016 28.9453C88.6797 28.8281 88.7188 28.7174 88.7188 28.6133V28.2422C88.7188 28.0729 88.3932 27.6953 87.7422 27.1094C87.4427 26.8099 87.1042 26.6406 86.7266 26.6016L86.0625 26.4844C84.9818 26.7057 84.2721 26.9727 83.9336 27.2852C83.7904 27.5586 83.6211 27.7995 83.4258 28.0078ZM83.6406 26.8359V26.875H83.6797C83.849 26.8359 83.9336 26.7904 83.9336 26.7383V26.7188H83.8359C83.7708 26.7188 83.7057 26.7578 83.6406 26.8359ZM88.3086 27.1094C88.3346 27.2135 88.3932 27.2656 88.4844 27.2656H88.5234L88.5625 27.207V27.0898L88.4844 26.9922C88.3672 26.9922 88.3086 27.0312 88.3086 27.1094ZM83.2695 27.207L83.2305 27.2656V27.2852H83.2695L83.3477 27.2266V27.207H83.2695ZM88.7969 27.3633H88.7188C88.862 27.793 88.9661 28.0273 89.0312 28.0664H89.1094L89.168 28.0273C89.0638 27.6107 88.9531 27.4023 88.8359 27.4023L88.7969 27.3633ZM83.4453 27.7148C83.5234 27.7018 83.5625 27.6497 83.5625 27.5586V27.5391C83.4844 27.5651 83.4453 27.6237 83.4453 27.7148ZM89.4609 28.2422L89.4023 28.2812V28.418L89.4609 28.4961C89.513 28.4831 89.5391 28.4375 89.5391 28.3594V28.2812L89.5195 28.2422H89.4609ZM83.2305 28.5156V28.5938L83.2695 28.6328H83.3086C83.3997 28.5938 83.4779 28.5221 83.543 28.418V28.3594H83.4453C83.3672 28.3594 83.2956 28.4115 83.2305 28.5156ZM82.4297 28.3984C82.3255 28.5026 82.2344 28.763 82.1562 29.1797H82.1953C82.2734 29.1797 82.3906 28.9518 82.5469 28.4961C82.5208 28.431 82.4818 28.3984 82.4297 28.3984ZM84.4219 28.6328V28.6914C84.6693 28.8607 85.1185 28.9453 85.7695 28.9453H85.9453L86.1992 28.9258V28.8477C85.6654 28.7305 85.0729 28.6589 84.4219 28.6328ZM87.9961 29.1406H87.9375V29.1992H87.9961V29.1406ZM84.2266 29.2969V29.3359C84.487 29.401 85.1771 29.4661 86.2969 29.5312V29.5508V29.5703L85.8867 29.6289C85.8867 29.668 86.056 29.6875 86.3945 29.6875C86.9414 29.6875 87.2148 29.6615 87.2148 29.6094C87.2148 29.4792 86.2188 29.375 84.2266 29.2969ZM82.2539 29.4336H82.1562V29.5508C82.1562 29.6289 82.1758 29.668 82.2148 29.668C82.2799 29.668 82.319 29.6029 82.332 29.4727L82.2539 29.4336ZM83.8359 29.4727L83.7383 29.4922V29.6094H83.8359V29.5312V29.4922V29.4727ZM83.2109 29.6289V29.6484H83.2305L83.5625 29.6094V29.5703L83.5039 29.4922H83.4453C83.3281 29.4922 83.25 29.5378 83.2109 29.6289ZM87.957 29.668C87.957 29.7201 88.0742 29.7461 88.3086 29.7461L88.4844 29.7266V29.6875C88.4844 29.6354 88.3607 29.6094 88.1133 29.6094C88.0091 29.6354 87.957 29.6549 87.957 29.668ZM82.1562 30.1758V30.2344V30.2539C82.1432 30.293 82.1367 30.3841 82.1367 30.5273V30.6055C82.1367 30.8398 82.2018 31.0482 82.332 31.2305H82.3516C82.3516 30.6055 82.2865 30.2539 82.1562 30.1758ZM82.5078 31.875H82.4492V31.9141L82.5078 31.9531H82.5469V31.9141L82.5078 31.875ZM82.6445 32.207L82.625 32.2266V32.2656C82.6771 32.474 82.7552 32.5781 82.8594 32.5781V32.5586V32.5195C82.8594 32.4154 82.7878 32.3112 82.6445 32.207ZM89.0117 32.3828L89.0508 32.4414H89.1484C89.2266 32.4414 89.2721 32.4154 89.2852 32.3633L89.207 32.2852H89.1875C89.0964 32.2852 89.0378 32.3177 89.0117 32.3828ZM88.5625 33.5156L88.6016 33.5352H88.6211C88.7643 33.5352 88.8555 33.4505 88.8945 33.2812V33.2422C88.7513 33.2422 88.6406 33.3333 88.5625 33.5156ZM89.9297 33.4766L89.9492 33.4961H90.0078C90.0859 33.444 90.125 33.3724 90.125 33.2812H90.0664C89.9753 33.3333 89.9297 33.3984 89.9297 33.4766ZM90.6133 33.2812H90.5938V33.3203C90.6328 33.4766 90.6914 33.5547 90.7695 33.5547H90.7891L90.8281 33.5156V33.4961C90.8021 33.3529 90.7305 33.2812 90.6133 33.2812ZM89.4805 33.6914L89.5391 33.7305C89.7344 33.6654 89.832 33.5807 89.832 33.4766V33.4375H89.8125C89.6302 33.4375 89.5195 33.5221 89.4805 33.6914ZM87.957 34.1211H87.9961C88.1003 34.082 88.1589 34.0169 88.1719 33.9258L88.1523 33.9062C88.0221 33.9844 87.957 34.056 87.957 34.1211ZM89.1094 34.2188H89.1875C89.3177 34.1016 89.3828 34.0169 89.3828 33.9648H89.3633C89.194 34.0169 89.1094 34.1016 89.1094 34.2188ZM83.5625 34.3945H83.5039V34.4727C83.5299 34.5378 83.6406 34.6094 83.8359 34.6875L83.9141 34.7461C83.7708 34.5247 83.6536 34.4076 83.5625 34.3945ZM84.9297 34.4727H84.9102V34.4922C84.9102 34.5443 85.0469 34.6029 85.3203 34.668L85.3398 34.6484V34.6094C85.1706 34.5182 85.0339 34.4727 84.9297 34.4727ZM86.082 34.6875H86.0234V34.7461H86.082V34.6875ZM88.1133 34.9805C88.2435 34.9805 88.3477 34.8828 88.4258 34.6875H88.3672C88.1979 34.7786 88.1133 34.8763 88.1133 34.9805ZM86.7461 35.1758L86.3359 35.1367H86.2578C86.1406 35.1367 86.0755 35.1628 86.0625 35.2148V35.2539L86.1406 35.3125H86.4922C86.8958 35.3125 87.3711 35.2409 87.918 35.0977C87.8919 35.0195 87.8138 34.9805 87.6836 34.9805H87.5859C87.2734 34.9805 86.9935 35.0456 86.7461 35.1758ZM99.2266 25.8984C99.7344 25.8984 100.164 26.2565 100.516 26.9727C100.581 26.9727 100.672 27.0573 100.789 27.2266L101.043 28.6719C100.952 28.8281 100.607 28.9062 100.008 28.9062H99.8125C99.3307 28.8281 99.0898 28.6654 99.0898 28.418C99.0898 28.2357 98.9401 27.9818 98.6406 27.6562C98.6016 27.5911 98.3216 27.5586 97.8008 27.5586C97.306 27.5586 96.707 27.6888 96.0039 27.9492C95.5091 28.4701 95.1836 28.8737 95.0273 29.1602C95.1185 31.3867 95.151 32.7799 95.125 33.3398C95.125 33.457 95.2031 33.5156 95.3594 33.5156H95.8281C96.0365 33.5286 96.1406 33.5677 96.1406 33.6328V33.6523L96.2188 33.9062L96.1797 35L96.0625 35.1562L95.1445 35.2539H95.0664L94.6758 35.3711C93.1784 35.319 92.4297 35.2604 92.4297 35.1953C92.1693 35.1953 92.0391 35.0781 92.0391 34.8438C92.013 34.6094 92 34.3685 92 34.1211C92 33.8737 92.2539 33.7109 92.7617 33.6328C92.7617 33.5286 92.9375 33.4766 93.2891 33.4766L93.3477 33.457V33.418L93.2305 28.0664C93.2305 27.7409 93.1458 27.5781 92.9766 27.5781H92.8594C92.7031 27.5781 92.4427 27.6497 92.0781 27.793L92.0391 27.7539V27.7148C92.0391 27.6888 92.0911 27.6562 92.1953 27.6172V27.5781C92.0651 27.5781 92 27.2135 92 26.4844C91.974 26.4844 91.9544 26.3672 91.9414 26.1328C92.4622 25.7292 93.0091 25.5273 93.582 25.5273H94.0703C94.2656 25.5273 94.5977 25.5924 95.0664 25.7227V25.7812C94.9492 25.9635 94.8906 26.0938 94.8906 26.1719V26.3086C95.9453 25.8398 97.3906 25.7031 99.2266 25.8984ZM94.1094 28.8477V28.9453C94.1745 29.0755 94.207 29.2122 94.207 29.3555C94.194 29.4076 94.1745 29.6745 94.1484 30.1562L94.1875 30.9375H94.207C94.2461 30.9375 94.2982 30.332 94.3633 29.1211C94.3893 29.1211 94.4023 28.9909 94.4023 28.7305C94.3893 28.6133 94.3568 28.5547 94.3047 28.5547H94.2656C94.1615 28.6198 94.1094 28.7174 94.1094 28.8477ZM92.9375 34.7461L92.6836 34.7656V34.8047C92.6836 34.8698 92.8724 34.9023 93.25 34.9023H93.8359L93.9727 34.8828C93.9727 34.8177 93.6276 34.7721 92.9375 34.7461ZM96.3164 26.7383V26.7773C96.4336 26.7773 96.5898 26.5885 96.7852 26.2109V26.1133H96.7656C96.4271 26.2174 96.2773 26.4258 96.3164 26.7383ZM98.8359 27.3633H98.9336C98.9987 27.3503 99.1224 27.194 99.3047 26.8945V26.875C99.3047 26.849 99.2786 26.8359 99.2266 26.8359C99.0052 26.9401 98.8945 27.0768 98.8945 27.2461C98.8815 27.2461 98.862 27.2852 98.8359 27.3633ZM94.3438 27.8125H94.2656L94.168 28.2227C94.168 28.2878 94.207 28.3529 94.2852 28.418H94.3047C94.3438 28.418 94.3763 28.3268 94.4023 28.1445L94.3438 27.8125ZM97.0586 26.3086L97.1562 26.6992H97.3125V26.2891L97.2539 26.2305H97.1953C97.1042 26.2435 97.0586 26.2695 97.0586 26.3086ZM92.8008 34.4336L92.7617 34.4727L92.7812 34.5117H93.8555V34.4531L93.1914 34.4336H92.8008ZM92.4492 26.2891C92.5534 26.3932 92.6641 26.4453 92.7812 26.4453L92.8008 26.4062V26.2695L92.7227 26.1719C92.5404 26.1979 92.4492 26.237 92.4492 26.2891ZM94.4219 34.5703L94.4805 34.6289H94.7734L94.8516 34.5508C94.8516 34.5247 94.819 34.4987 94.7539 34.4727C94.5326 34.4987 94.4219 34.5312 94.4219 34.5703ZM100.047 26.8164H99.9883V26.8555C100.092 26.9596 100.184 27.0117 100.262 27.0117H100.32V26.9727C100.216 26.8685 100.125 26.8164 100.047 26.8164ZM93.3477 25.8984H93.2891V25.9766L93.4062 26.1133H93.582V26.0742L93.3477 25.8984ZM92.7617 27.0508V27.0898H92.8203C92.9635 27.0898 93.0417 27.0638 93.0547 27.0117L93.0156 26.9531H92.9766C92.8594 26.9531 92.7878 26.9857 92.7617 27.0508ZM97.7617 26.1328L97.5273 26.1523V26.1719L97.5664 26.2305H97.7617C97.8529 26.2305 97.9049 26.2044 97.918 26.1523L97.8789 26.1328H97.7617ZM94.6758 32.4219L94.5977 32.4805V32.6367H94.6758L94.7539 32.5781V32.4609L94.7148 32.4219H94.6758ZM92.332 34.5508L92.2539 34.4727L92.2148 34.5508V34.6289L92.2539 34.6875H92.332V34.5508ZM95.0664 27.168L94.9883 27.1875V27.2461L95.0664 27.3047H95.125L95.1836 27.2461V27.1875L95.0664 27.168ZM98.1523 26.1133V26.1523H98.2891L98.3672 26.0938L98.3086 26.0352C98.2044 26.0612 98.1523 26.0872 98.1523 26.1133ZM99.4414 26.1133L99.4023 26.1523V26.1719L99.4414 26.2305H99.5195L99.5586 26.1719V26.1523L99.5195 26.1133H99.4414ZM94.6953 25.918L94.5977 25.957V26.0352H94.6953L94.7539 25.957L94.6953 25.918ZM94.6367 26.2695L94.5586 26.3281V26.3672L94.5977 26.4062L94.6953 26.3281V26.2695H94.6367ZM99.3828 27.8906V27.9297H99.4219L99.5 27.8711V27.8125H99.4805C99.4154 27.8516 99.3828 27.8776 99.3828 27.8906ZM98.7188 26.1719L98.6406 26.2305V26.25H98.7383L98.7773 26.2109V26.1719H98.7188ZM94.6758 32.8516H94.6367V32.9297H94.6758V32.8516Z" fill="black"/>
<circle cx="16.8478" cy="20.6882" r="16.8478" fill="#FFE685"/>
<path d="M37.0652 34.332C37.7391 33.8237 37.816 5.75786 37.0652 4.00597C35.0434 -0.711427 25.4661 0.521327 18.8695 4.00596C12.8043 7.20988 8.08691 12.7669 8.08691 18.1581C8.08691 23.5494 36.3913 34.8403 37.0652 34.332Z" stroke="black" stroke-width="0.8"/>
<path d="M33.0023 6.90826C33.4669 8.86614 32.2563 10.8299 30.2984 11.2945C28.3406 11.759 26.3768 10.5484 25.9122 8.59057C25.795 8.09653 25.8184 7.75676 25.9087 7.51334C25.9971 7.27513 26.1669 7.08262 26.4359 6.91322C26.7117 6.73957 27.0765 6.6001 27.5267 6.47043C27.8816 6.36819 28.2686 6.2776 28.6871 6.17963C28.7995 6.15331 28.9142 6.12646 29.0312 6.09871C29.1479 6.07101 29.2624 6.04347 29.3749 6.01644C29.7943 5.9156 30.1846 5.82175 30.5528 5.75243C31.0194 5.66455 31.4172 5.62315 31.7511 5.65298C32.0779 5.68219 32.3245 5.77775 32.5156 5.95055C32.7096 6.12603 32.8857 6.41676 33.0023 6.90826Z" stroke="black" stroke-width="0.8"/>
<circle cx="21.5652" cy="18.6664" r="3.64348" stroke="black" stroke-width="0.8"/>
<path d="M37.7238 18.6766C37.7238 18.8655 37.7253 19.0479 37.7267 19.2246C37.7295 19.5836 37.7321 19.9191 37.7222 20.238C37.7074 20.7115 37.6652 21.104 37.5683 21.4176C37.4736 21.7238 37.3333 21.9337 37.1317 22.0739C36.9258 22.2171 36.6091 22.3201 36.1021 22.3201C34.0899 22.3201 32.4586 20.6888 32.4586 18.6766C32.4586 16.6643 34.0899 15.0331 36.1021 15.0331C36.6091 15.0331 36.9258 15.136 37.1317 15.2793C37.3333 15.4195 37.4736 15.6294 37.5683 15.9356C37.6652 16.2492 37.7074 16.6417 37.7222 17.1151C37.7321 17.4341 37.7295 17.7695 37.7267 18.1285C37.7253 18.3052 37.7238 18.4876 37.7238 18.6766Z" stroke="black" stroke-width="0.8"/>
<path d="M24.3074 27.9674L24.3145 27.9537L24.3205 27.9396C25.1063 26.0871 27.2451 25.2224 29.0975 26.0082C30.95 26.7941 31.8147 28.9328 31.0289 30.7853C30.8626 31.1772 30.658 31.3654 30.4479 31.4571C30.2264 31.5537 29.9374 31.5702 29.5585 31.4984C29.1803 31.4268 28.7516 31.275 28.275 31.0783C28.0043 30.9666 27.7395 30.8498 27.4657 30.729C27.2441 30.6313 27.0166 30.5309 26.7753 30.4286C26.259 30.2096 25.7977 30.0126 25.4027 29.8151C25.0056 29.6166 24.6992 29.4291 24.4841 29.2373C24.2725 29.0487 24.1708 28.8756 24.1394 28.7041C24.1079 28.5317 24.136 28.2982 24.3074 27.9674Z" stroke="black" stroke-width="0.8"/>
<path d="M10.1086 20.6881C14.826 11.2533 26.9565 3.84034 37.0652 5.862" stroke="black" stroke-width="0.8"/>
</svg>
