<svg width="10" height="5" viewBox="0 0 26 5" fill="none" xmlns="http://www.w3.org/2000/svg">
<path d="M22.8136 0.120494H15.373C15.1313 0.120494 15.028 0.120494 14.855 0.12049L14.5852 0.120494C14.4321 0.12049 13.9555 0.12049 12.7469 0.12049C11.5384 0.12049 11.6449 0.12049 11.5214 0.120483L10.6069 0.120497C10.4531 0.120497 10.3626 0.120494 10.1209 0.120494H2.68034C1.4718 0.120494 0.491943 1.11754 0.491943 2.34726C0.491943 3.57698 1.4718 4.57402 2.68034 4.57402H10.1209C10.3626 4.57402 10.3954 4.57402 10.6069 4.57402H10.9087C11.5214 4.57402 11.5384 4.57402 12.7469 4.57402C13.9555 4.57402 13.5863 4.57402 13.9724 4.57402H14.5852C14.9703 4.57402 15.1313 4.57402 15.373 4.57402H22.8136C24.0221 4.57402 25.0019 3.57698 25.0019 2.34726C25.0019 1.11754 24.0221 0.120494 22.8136 0.120494Z" fill="#000"/>
</svg>
