<svg xmlns="http://www.w3.org/2000/svg" viewBox="0 0 440.02 395.91"><defs><style>.a57ac236-eb5a-4e28-a7c0-6652af57a8e9{opacity:0.25;}.b66f5d32-b55d-49ff-aa6d-d43e5bb13395{fill:#6c184e;}.bdf863a2-c29e-4bcd-88aa-cde173fe5a28{fill:#f6af41;}.bc877140-fafd-4ddf-b603-cc339b8149d5{opacity:0.3;}.a58e9065-88df-4a13-b2ff-81f6afb4505a{fill:#fecf0a;}.bb89b662-019c-45b7-a6fd-d22f8b111252{opacity:0.65;}.b914e4a9-8f74-49c1-9472-bdd7f125c11c{fill:#fff;}.aba3aad4-c59d-4ec8-b1ca-fd1f9b5afe7e{fill:#ed2026;}.b756193e-09e6-40c3-873d-abdd400bc228{fill:#bc2026;}.bcacc37f-17f0-4650-8bb7-d032b45eee25{fill:#f6c546;}.af3c7afc-e77b-47c7-ad2a-4a59c2291d5d{fill:#5abb5c;}.a17565cf-de10-4cee-b674-c6a8e55c0117{fill:#671a47;}.a7282b98-ed20-4aae-8c10-dc73e1f0f7d8{fill:#651c47;}.a6752009-5c7b-4eac-9dd1-4d044860889e{fill:#ec984e;}.a33b5bba-0bbf-4bd8-b3ad-178da5f941ea{fill:#6d184e;}</style></defs><g id="a922bfa9-5b4a-4472-a528-5955f861a741" data-name="Layer 2"><g id="ad77d249-d249-455d-9acc-77c6dd4de468" data-name="Layer 1"><g class="a57ac236-eb5a-4e28-a7c0-6652af57a8e9"><ellipse class="b66f5d32-b55d-49ff-aa6d-d43e5bb13395" cx="223.64" cy="381.23" rx="153.55" ry="14.68"/></g><path class="bdf863a2-c29e-4bcd-88aa-cde173fe5a28" d="M14.27,295.12s-8.83,24.35,56.88-10.54,229.71-61.54,307.29-53S401.26,80,343.68,54.35,106,139.59,14.27,295.12Z"/><g class="bc877140-fafd-4ddf-b603-cc339b8149d5"><path class="b66f5d32-b55d-49ff-aa6d-d43e5bb13395" d="M19.48,289.74s-14,29.73,51.67-5.16,229.71-61.54,307.29-53S401.26,80,343.68,54.35,111.21,134.2,19.48,289.74Z"/></g><path class="b66f5d32-b55d-49ff-aa6d-d43e5bb13395" d="M25.59,304.11a14,14,0,0,1-8.2-2.14c-6.19-4.35-2.85-12.82-2.7-13.18a1.91,1.91,0,0,1,.16-.32C57,217,111.41,164.65,149.62,133.34,198,93.66,249.13,64.39,289.8,53c23.47-6.56,42.06-6.9,55.26-1,20.91,9.33,42.73,36,58.36,71.36,15.32,34.64,20.35,68.73,13.13,89-5.2,14.58-16.32,22.16-32.31,22.16a57.44,57.44,0,0,1-6.17-.35c-79.83-8.76-242.49,19.3-305.35,52.67C50.94,298.38,35.37,304.11,25.59,304.11Zm-5.26-13.43c-.56,1.52-1.44,5.61.86,7.22,1.94,1.35,11.15,4.22,48.38-15.55,31.15-16.54,85.89-32.26,150.19-43.13C282,228.69,341.48,224.85,378.82,229c16.27,1.78,27-4.33,32-18.16,6.84-19.16,1.86-51.94-13-85.53S361.63,65.31,342.3,56.68C330.74,51.53,313.23,52,291.65,58c-39.84,11.13-90.1,40-137.89,79.14C115.93,168.15,62.08,219.94,20.33,290.68Z"/><path class="a58e9065-88df-4a13-b2ff-81f6afb4505a" d="M347.75,85c-9.12-1.82.91-4.79-11.18-15.25s-25.38-1.86-25.38-1.86c2.16-3.83,2.65-7.39.33-10.21C301.12,45,273.81,53,263.81,42.8S230,42,230,42,87.44,115.77,46.64,200.79,9,311.91,26.69,306s30.8-19.15,43.78-8.7S67.24,327.37,83,337c8.79,5.41,29.15-4.3,19.37-18.78s-22.74-41.34-.8-55.74,72.33-22.07,69.35-1.84c-7.37,50.13,54.1,28.87,35,7.69-16.21-18-1.3-49.59,34.86-32.19,30.34,14.59,26.49-5.28,56.42-13.82,22.33-6.36,63.42-6.57,63.42-6.57,28.83-14.7,2.77-22,2.77-22s24.16-16.14,18.1-27.3-3.12-28.72-2.59-46.51S356.87,86.82,347.75,85Z"/><g class="bc877140-fafd-4ddf-b603-cc339b8149d5"><path class="b66f5d32-b55d-49ff-aa6d-d43e5bb13395" d="M347.75,85c-9.12-1.82.91-4.79-11.18-15.25s-25.38-1.86-25.38-1.86c2.16-3.83,2.65-7.39.33-10.21C301.12,45,273.81,53,263.81,42.8S230,42,230,42s-3.31,1.72-9.07,4.92c44.59,10.17,136.62,42.77,119.67,158.8,0,0-178,11.08-226.91,37.47-35.19,19-70.55,54.65-98,59.22,2,4.37,5.88,5.37,11,3.65,17.73-5.88,30.8-19.15,43.78-8.7S67.24,327.37,83,337c8.79,5.41,29.15-4.3,19.37-18.78s-22.74-41.34-.8-55.74,72.33-22.07,69.35-1.84c-7.37,50.13,54.1,28.87,35,7.69-16.21-18-1.3-49.59,34.86-32.19,30.34,14.59,26.49-5.28,56.42-13.82,22.33-6.36,63.42-6.57,63.42-6.57,28.83-14.7,2.77-22,2.77-22s24.16-16.14,18.1-27.3-3.12-28.72-2.59-46.51S356.87,86.82,347.75,85Z"/></g><g class="bb89b662-019c-45b7-a6fd-d22f8b111252"><path class="b914e4a9-8f74-49c1-9472-bdd7f125c11c" d="M355.54,89a18.09,18.09,0,0,1,2.66.78,44.08,44.08,0,0,0-7-3.68C351.38,87.44,352.09,88.29,355.54,89Z"/><path class="b914e4a9-8f74-49c1-9472-bdd7f125c11c" d="M371.38,197.87l-.16-.13-.08.06Z"/><path class="b914e4a9-8f74-49c1-9472-bdd7f125c11c" d="M319,71.87s7.79-5,16.87-2.7a20,20,0,0,0-15.12-4.47C321.11,66.88,320.42,69.31,319,71.87Z"/><path class="b914e4a9-8f74-49c1-9472-bdd7f125c11c" d="M309.45,55.6c-9-7.53-26-5.32-37.47-8.47C279.79,54.41,297.07,51.83,309.45,55.6Z"/><path class="b914e4a9-8f74-49c1-9472-bdd7f125c11c" d="M230,42s-63.43,32.85-117.77,80a21.86,21.86,0,0,0-3,2.36A20.58,20.58,0,0,0,107.5,126c-25.27,22.53-48.07,48.09-60.86,74.75-38.32,79.84-37.9,107.72-23,106-5.14-10.28,1.52-40.94,30.81-102,11-23,29.44-45.09,50.48-65.18a7.24,7.24,0,0,0,1.65,1.86c4.67,3.75,13.4,2.15,19.51-3.57s7.26-13.41,2.59-17.16a7.91,7.91,0,0,0-1.49-.93C179.76,76,234.06,42.4,234.06,42.4s18.44-2.21,29.6.27C253.59,32.75,230,42,230,42Z"/></g><path class="b66f5d32-b55d-49ff-aa6d-d43e5bb13395" d="M89,341.15a14.88,14.88,0,0,1-7.81-2c-9.56-5.88-9-14.88-8.46-22.83.43-6.65.84-12.93-4.32-17.09-7.25-5.83-14.21-2.88-25.89,2.84a116,116,0,0,1-14.77,6.39c-6.42,2.13-10.25.36-12.33-1.5-13.31-11.9,8.11-64.85,28.42-107.18,21.31-44.42,70.4-85.6,107.83-112.32a715.83,715.83,0,0,1,76.73-47.76l.31-.14c1.05-.41,26.05-10,37.39,1.53,3.92,4,11.76,4.69,20.06,5.45,10.08.91,21.51,2,27.81,9.61a8.85,8.85,0,0,1,2,6.75,24,24,0,0,1,22.67,5c7.24,6.26,7.47,10.48,7.61,13,0,.32,0,.74.08,1a8.1,8.1,0,0,0,2,.59h0c10.51,2.09,34,18.48,33.46,37.63-.12,3.93-.35,7.86-.58,11.66-.79,13.14-1.53,25.55,2.88,33.67,5.48,10.08-8.05,22.26-15.18,27.73,3.45,1.67,7.56,4.53,8.11,8.82.68,5.32-4.23,10.58-15,16.07a3.53,3.53,0,0,1-1.51.36c-.41,0-40.88.28-62.5,6.44-10.77,3.07-16.81,7.6-22.14,11.59-9.92,7.43-17,11.5-36.69,2-13.49-6.49-25.1-6.29-31.84.56-7.07,7.19-6.7,19.36.83,27.72,5.52,6.13,5.77,13.28.66,19.15-6.2,7.11-18.24,10.15-27.41,6.91-6.53-2.31-17-9.6-13.63-32.46.49-3.32-.73-5.58-3.84-7.15-11.47-5.76-43.8.31-60.7,11.41-21.11,13.85-5.93,41.21,1.58,52.32,4.82,7.14,3.83,14.47-2.64,19.62A21.79,21.79,0,0,1,89,341.15ZM60.06,290.84a19.32,19.32,0,0,1,12.47,4.56c7.24,5.84,6.71,14,6.24,21.23-.49,7.54-.92,14.05,5.92,18.26,3.28,2,9.47,1,13.51-2.22,2.52-2,6.06-6.37,1.51-13.11-8.32-12.32-25-42.76,0-59.15,17.35-11.39,52.55-19.21,67.36-11.76,5.26,2.64,7.61,6.91,6.81,12.34-2.11,14.37,1.41,23.94,9.92,26.95,6.65,2.35,15.76,0,20.31-5.22,2-2.3,4.59-7-.6-12.76-9.23-10.25-9.53-25.34-.66-34.35,8.65-8.79,23.36-9.44,39.36-1.75,17,8.19,21.29,5,29.82-1.41,5.47-4.1,12.28-9.2,24.2-12.6,21-6,57.41-6.63,63.52-6.69,10.35-5.41,11.58-9,11.37-10.61-.4-3.2-6.56-5.64-8.69-6.24a2.79,2.79,0,0,1-2.05-2,2.46,2.46,0,0,1,1.13-2.52c5.77-3.86,21.31-16.58,17.22-24.11-5.06-9.3-4.28-22.35-3.45-36.17.23-3.77.46-7.66.57-11.52.48-15.94-20.24-30.7-28.77-32.4-5.47-1.09-6.61-3.09-6.79-6.4-.11-2-.26-4.71-5.84-9.55-10.05-8.68-21-1.9-21.45-1.61a3.37,3.37,0,0,1-3.73-.1,2.39,2.39,0,0,1-.78-3.15c2.76-4.9,1.12-6.89.59-7.54-4.72-5.73-13.86-6.56-23.53-7.44-9.11-.83-18.54-1.69-24-7.26-6.93-7-24-2.59-30.17-.21a710.8,710.8,0,0,0-75.91,47.28c-36.87,26.33-85.19,66.83-106,110.23-14.93,31.12-24.81,56.05-29.36,74.11-5.14,20.38-1.92,26-.3,27.41.44.39,1.8,1.6,5.85.26a111.78,111.78,0,0,0,14-6.06C46.31,294.21,53.21,290.84,60.06,290.84Z"/><path class="b66f5d32-b55d-49ff-aa6d-d43e5bb13395" d="M251.46,214c17.24-2.69,34.55-5.12,52-7.07,8.7-1,17.43-1.83,26.19-2.49s17.55-1.14,26.39-1.29a2.51,2.51,0,0,1,2.7,2.25,2.48,2.48,0,0,1-2.59,2.33H356c-8.68-.23-17.4-.14-26.12.14s-17.44.75-26.16,1.34C286.24,210.4,268.83,212.07,251.46,214Z"/><g class="bc877140-fafd-4ddf-b603-cc339b8149d5"><path class="b66f5d32-b55d-49ff-aa6d-d43e5bb13395" d="M307.12,54.27l.25-.15-.12-.08Z"/><path class="b66f5d32-b55d-49ff-aa6d-d43e5bb13395" d="M374.79,106.39c-.53,17.79-3.47,35.36,2.59,46.52a7.82,7.82,0,0,1,.72,1.83c-1.14-10.07.39-22.35.76-34.73a25.59,25.59,0,0,0-4.07-14C374.79,106.17,374.8,106.28,374.79,106.39Z"/><path class="b66f5d32-b55d-49ff-aa6d-d43e5bb13395" d="M378.35,156.65c.17,10.69-19.07,23.55-19.07,23.55s10.08,2.81,10.77,8.46c6.64-5.67,15.31-14.94,11.4-22.14A29.91,29.91,0,0,1,378.35,156.65Z"/></g><ellipse class="aba3aad4-c59d-4ec8-b1ca-fd1f9b5afe7e" cx="249.29" cy="94.67" rx="42.73" ry="31.27" transform="translate(-17.36 92.84) rotate(-20.4)"/><g class="bb89b662-019c-45b7-a6fd-d22f8b111252"><path class="b914e4a9-8f74-49c1-9472-bdd7f125c11c" d="M255.69,124.68c-21.54,4.84-40.44-4.54-42.22-21s14.24-33.65,35.79-38.5c15.84-3.56,30.24.58,37.47,9.55-7.22-10.54-23.2-15.59-40.86-11.62C223,68.28,206,86.56,207.92,104s21.93,27.36,44.78,22.23a58,58,0,0,0,16.62-6.57A54.54,54.54,0,0,1,255.69,124.68Z"/></g><path class="b756193e-09e6-40c3-873d-abdd400bc228" d="M252.72,70.3l5,46.08c13.94-5.3,23.62-17.22,22.38-28.64S267.12,69.22,252.72,70.3Z"/><path class="b756193e-09e6-40c3-873d-abdd400bc228" d="M240.23,73.21c-13.6,5.41-23,17.14-21.75,28.38s12.62,18.31,26.72,17.49Z"/><path class="b756193e-09e6-40c3-873d-abdd400bc228" d="M240.23,73.21c-13.6,5.41-23,17.14-21.75,28.38s12.62,18.31,26.72,17.49Z"/><path class="aba3aad4-c59d-4ec8-b1ca-fd1f9b5afe7e" d="M242.15,88.58c-4.46,1.77-7.53,5.61-7.13,9.3s4.13,6,8.75,5.73Z"/><path class="aba3aad4-c59d-4ec8-b1ca-fd1f9b5afe7e" d="M254.15,85.88c4.63-.27,8.36,2,8.76,5.73s-2.67,7.52-7.13,9.3Z"/><path class="b66f5d32-b55d-49ff-aa6d-d43e5bb13395" d="M240.85,129.77A43,43,0,0,1,218.56,124c-7.62-4.64-12.3-11.69-13.19-19.85-2-18.43,15.89-37.8,39.86-43.19,12.85-2.89,25.52-1.32,34.78,4.32C287.63,70,292.32,77,293.2,85.16c2,18.42-15.89,37.8-39.86,43.19A57,57,0,0,1,240.85,129.77ZM257.73,64a51.47,51.47,0,0,0-11.21,1.27c-21.65,4.87-37.81,22.13-36.05,38.47.75,6.84,4.66,12.75,11,16.63,8,4.88,19.16,6.21,30.55,3.66,21.64-4.87,37.81-22.13,36-38.47-.74-6.85-4.66-12.75-11-16.63A37.14,37.14,0,0,0,257.73,64Z"/><path class="bcacc37f-17f0-4650-8bb7-d032b45eee25" d="M235.49,109a12.08,12.08,0,0,1,.67,1.94,5.17,5.17,0,0,1,.25,1.87,1.8,1.8,0,0,1-2,1.48,1.71,1.71,0,0,1-1.71-1.72,1.94,1.94,0,0,1,.11-.43,5.78,5.78,0,0,1,1.12-1.61A13.93,13.93,0,0,1,235.49,109Z"/><path class="bcacc37f-17f0-4650-8bb7-d032b45eee25" d="M229.63,104.38a13.16,13.16,0,0,1-.52,2,5.79,5.79,0,0,1-.84,1.75,2,2,0,0,1-2.56.44,1.48,1.48,0,0,1-.52-2.22,2.13,2.13,0,0,1,.34-.33,7.51,7.51,0,0,1,1.88-.94A18.67,18.67,0,0,1,229.63,104.38Z"/><path class="bcacc37f-17f0-4650-8bb7-d032b45eee25" d="M228.06,97a12.3,12.3,0,0,1-1.49,1.41A5.91,5.91,0,0,1,225,99.43a2,2,0,0,1-2.46-.77,1.52,1.52,0,0,1,.88-2.14,2,2,0,0,1,.53-.13,6.91,6.91,0,0,1,2,.1A15.86,15.86,0,0,1,228.06,97Z"/><path class="bcacc37f-17f0-4650-8bb7-d032b45eee25" d="M231.35,89.36a14.42,14.42,0,0,1-2,.35,5.93,5.93,0,0,1-1.88,0A1.62,1.62,0,0,1,226,87.8a1.87,1.87,0,0,1,2.21-1.22,2,2,0,0,1,.55.19,5,5,0,0,1,1.37,1.12A12.81,12.81,0,0,1,231.35,89.36Z"/><path class="bcacc37f-17f0-4650-8bb7-d032b45eee25" d="M238.33,84.26a14.66,14.66,0,0,1-1.86-.93A5.62,5.62,0,0,1,235,82.22a1.47,1.47,0,0,1,.36-2.25,2,2,0,0,1,2.59.31,1.41,1.41,0,0,1,.27.43,4.41,4.41,0,0,1,.26,1.69A10,10,0,0,1,238.33,84.26Z"/><path class="bcacc37f-17f0-4650-8bb7-d032b45eee25" d="M265.4,102.24a14,14,0,0,1,1.8,1.08,5.57,5.57,0,0,1,1.41,1.24,1.48,1.48,0,0,1-.55,2.22,2,2,0,0,1-2.56-.48,1.63,1.63,0,0,1-.23-.43,4.56,4.56,0,0,1-.13-1.74A9.85,9.85,0,0,1,265.4,102.24Z"/><path class="bcacc37f-17f0-4650-8bb7-d032b45eee25" d="M269.89,95.19A15.25,15.25,0,0,1,272,95a6.29,6.29,0,0,1,1.88.16,1.58,1.58,0,0,1,1.18,2,1.93,1.93,0,0,1-2.34,1,2,2,0,0,1-.53-.24,4.79,4.79,0,0,1-1.23-1.23A11.21,11.21,0,0,1,269.89,95.19Z"/><path class="bcacc37f-17f0-4650-8bb7-d032b45eee25" d="M269.78,87.33A13.94,13.94,0,0,1,271.33,86a5.8,5.8,0,0,1,1.65-.93,2,2,0,0,1,2.39.92,1.55,1.55,0,0,1-1.07,2.08,2.13,2.13,0,0,1-.55.1,6.35,6.35,0,0,1-1.94-.25A16.17,16.17,0,0,1,269.78,87.33Z"/><path class="bcacc37f-17f0-4650-8bb7-d032b45eee25" d="M265.12,81.44a11.54,11.54,0,0,1,.59-1.94,5.45,5.45,0,0,1,.89-1.67,2,2,0,0,1,2.59-.36,1.47,1.47,0,0,1,.4,2.24,1.36,1.36,0,0,1-.36.32,6.88,6.88,0,0,1-1.9.84A18.72,18.72,0,0,1,265.12,81.44Z"/><path class="bcacc37f-17f0-4650-8bb7-d032b45eee25" d="M257.54,79.56a12.11,12.11,0,0,1-.58-2,5.37,5.37,0,0,1-.16-1.89,1.8,1.8,0,0,1,2.05-1.4,1.67,1.67,0,0,1,1.62,1.78,1.57,1.57,0,0,1-.13.42,5.91,5.91,0,0,1-1.19,1.58A14.49,14.49,0,0,1,257.54,79.56Z"/><path class="b756193e-09e6-40c3-873d-abdd400bc228" d="M257.71,118.6a2.8,2.8,0,0,1-1.3-.31,2.2,2.2,0,0,1-1.25-1.71l-5-46.08a2.07,2.07,0,0,1,.58-1.63,2.74,2.74,0,0,1,1.75-.79c16.12-1.21,28.79,7,30.14,19.45,1.31,12.14-8.74,25.13-23.91,30.88A2.72,2.72,0,0,1,257.71,118.6Zm-2.19-46.19L259.91,113c11.37-5.48,18.65-15.58,17.63-25-1-9.27-10.07-15.54-22-15.54Z"/><path class="b756193e-09e6-40c3-873d-abdd400bc228" d="M243,121.37c-14.6,0-25.81-8-27.07-19.57-1.3-12.07,8.25-24.66,23.24-30.61a2.91,2.91,0,0,1,2.35.09A2.25,2.25,0,0,1,242.79,73l5,45.88a2,2,0,0,1-.6,1.65,2.75,2.75,0,0,1-1.78.77C244.57,121.35,243.78,121.37,243,121.37ZM238,76.7c-11,5.55-18,15.51-17,24.69s9.62,15.35,21.35,15.53Z"/><ellipse class="aba3aad4-c59d-4ec8-b1ca-fd1f9b5afe7e" cx="157.72" cy="176.82" rx="39.97" ry="29.25" transform="translate(-51.75 66.07) rotate(-20.4)"/><g class="bb89b662-019c-45b7-a6fd-d22f8b111252"><path class="b914e4a9-8f74-49c1-9472-bdd7f125c11c" d="M163.71,204.89c-20.15,4.53-37.83-4.24-39.5-19.6s13.33-31.49,33.48-36c14.82-3.33,28.29.54,35.05,8.93-6.75-9.86-21.7-14.58-38.21-10.87-21.37,4.81-37.27,21.9-35.5,38.19s20.51,25.6,41.88,20.8a54.25,54.25,0,0,0,15.55-6.14A51,51,0,0,1,163.71,204.89Z"/></g><path class="b756193e-09e6-40c3-873d-abdd400bc228" d="M160.93,154l4.67,43.11c13-4.95,22.09-16.1,20.93-26.78S174.4,153,160.93,154Z"/><path class="b756193e-09e6-40c3-873d-abdd400bc228" d="M149.25,156.75c-12.73,5.06-21.48,16-20.34,26.55s11.79,17.13,25,16.36Z"/><path class="b756193e-09e6-40c3-873d-abdd400bc228" d="M149.25,156.75c-12.73,5.06-21.48,16-20.34,26.55s11.79,17.13,25,16.36Z"/><path class="aba3aad4-c59d-4ec8-b1ca-fd1f9b5afe7e" d="M151,171.12c-4.17,1.66-7,5.26-6.67,8.7s3.87,5.62,8.19,5.36Z"/><path class="aba3aad4-c59d-4ec8-b1ca-fd1f9b5afe7e" d="M162.27,168.6c4.32-.25,7.82,1.91,8.19,5.36s-2.5,7-6.67,8.7Z"/><path class="b66f5d32-b55d-49ff-aa6d-d43e5bb13395" d="M149.83,209.87a40.36,40.36,0,0,1-21-5.41c-7.19-4.38-11.61-11-12.44-18.72-1.88-17.34,14.93-35.56,37.46-40.63,12.09-2.72,24-1.23,32.74,4.08,7.19,4.37,11.61,11,12.44,18.72h0c1.88,17.33-14.93,35.56-37.47,40.62A53.07,53.07,0,0,1,149.83,209.87Zm15.79-61.51a47.36,47.36,0,0,0-10.43,1.19c-20.14,4.53-35.18,20.57-33.53,35.76.68,6.34,4.31,11.81,10.21,15.4,7.45,4.53,17.79,5.77,28.38,3.39,20.13-4.53,35.17-20.57,33.53-35.76h0a20.49,20.49,0,0,0-10.22-15.4A34.52,34.52,0,0,0,165.62,148.36Z"/><path class="bcacc37f-17f0-4650-8bb7-d032b45eee25" d="M148.5,190.92a12.08,12.08,0,0,1,1,1.56,5.5,5.5,0,0,1,.68,1.57,1.35,1.35,0,0,1-1.23,1.53,1.52,1.52,0,0,1-1.77-1.06,1.83,1.83,0,0,1,0-.33,5.07,5.07,0,0,1,.48-1.62A11.5,11.5,0,0,1,148.5,190.92Z"/><path class="bcacc37f-17f0-4650-8bb7-d032b45eee25" d="M141.66,188.53a11.69,11.69,0,0,1,0,1.88,5.79,5.79,0,0,1-.36,1.73,1.61,1.61,0,0,1-2,.78,1.28,1.28,0,0,1-.9-1.69,1.2,1.2,0,0,1,.16-.27,6.71,6.71,0,0,1,1.4-1.29A15.87,15.87,0,0,1,141.66,188.53Z"/><path class="bcacc37f-17f0-4650-8bb7-d032b45eee25" d="M138,182.62a12.56,12.56,0,0,1-1,1.57,6.14,6.14,0,0,1-1.24,1.3,1.66,1.66,0,0,1-2.14-.15,1.2,1.2,0,0,1,.17-1.86,1.59,1.59,0,0,1,.31-.17,7.76,7.76,0,0,1,1.87-.47A17,17,0,0,1,138,182.62Z"/><path class="bcacc37f-17f0-4650-8bb7-d032b45eee25" d="M138.87,175.27a13.49,13.49,0,0,1-1.72.76,6,6,0,0,1-1.7.46,1.48,1.48,0,0,1-1.67-1.17,1.39,1.39,0,0,1,1.35-1.46,2.77,2.77,0,0,1,.41,0,6.41,6.41,0,0,1,1.67.55A13,13,0,0,1,138.87,175.27Z"/><path class="bcacc37f-17f0-4650-8bb7-d032b45eee25" d="M143.9,169.05a14.1,14.1,0,0,1-1.85-.36,5.59,5.59,0,0,1-1.61-.59,1.2,1.2,0,0,1-.4-1.83,1.66,1.66,0,0,1,2.11-.35,1.28,1.28,0,0,1,.31.24,4.77,4.77,0,0,1,.84,1.33A10.31,10.31,0,0,1,143.9,169.05Z"/><path class="bcacc37f-17f0-4650-8bb7-d032b45eee25" d="M172.79,183.9a13.43,13.43,0,0,1,1.57,1.06,5.71,5.71,0,0,1,1.25,1.19,1.23,1.23,0,0,1-.5,1.82,1.66,1.66,0,0,1-2.09-.44.92.92,0,0,1-.16-.31,4.86,4.86,0,0,1-.2-1.59A10.39,10.39,0,0,1,172.79,183.9Z"/><path class="bcacc37f-17f0-4650-8bb7-d032b45eee25" d="M177,177.31a15.19,15.19,0,0,1,1.88-.07,6.29,6.29,0,0,1,1.72.21,1.29,1.29,0,0,1,.93,1.69,1.6,1.6,0,0,1-2,.81l-.37-.17a5.14,5.14,0,0,1-1.19-1.1A11.08,11.08,0,0,1,177,177.31Z"/><path class="bcacc37f-17f0-4650-8bb7-d032b45eee25" d="M176.89,170a13.48,13.48,0,0,1,1.48-1.1,6.06,6.06,0,0,1,1.55-.81,1.61,1.61,0,0,1,2,.8,1.29,1.29,0,0,1-.92,1.69,1.78,1.78,0,0,1-.39.07,7,7,0,0,1-1.8-.17A15.59,15.59,0,0,1,176.89,170Z"/><path class="bcacc37f-17f0-4650-8bb7-d032b45eee25" d="M172.53,164.45a11.56,11.56,0,0,1,.64-1.74,5.9,5.9,0,0,1,.89-1.52,1.68,1.68,0,0,1,2.13-.25,1.2,1.2,0,0,1,.3,1.84,1.38,1.38,0,0,1-.26.23,7.22,7.22,0,0,1-1.72.83A18.36,18.36,0,0,1,172.53,164.45Z"/><path class="bcacc37f-17f0-4650-8bb7-d032b45eee25" d="M165.44,162.69a11.34,11.34,0,0,1-.42-1.82,5.43,5.43,0,0,1-.08-1.74,1.5,1.5,0,0,1,1.71-1.13,1.36,1.36,0,0,1,1.3,1.48,1,1,0,0,1-.09.3,5.79,5.79,0,0,1-1,1.5A13,13,0,0,1,165.44,162.69Z"/><path class="b756193e-09e6-40c3-873d-abdd400bc228" d="M165.6,199.42a3,3,0,0,1-1.35-.32,2.26,2.26,0,0,1-1.28-1.76l-4.67-43.1a2.06,2.06,0,0,1,.6-1.68,2.77,2.77,0,0,1,1.8-.82c15.21-1.14,27.18,6.59,28.46,18.39,1.24,11.44-8.23,23.68-22.51,29.1A2.91,2.91,0,0,1,165.6,199.42Zm-1.78-43.2,4,37.36c10.37-5.12,17-14.38,16-23S174.71,156.3,163.82,156.22Z"/><path class="b756193e-09e6-40c3-873d-abdd400bc228" d="M151.83,202c-13.78,0-24.37-7.54-25.55-18.49-1.24-11.38,7.76-23.24,21.87-28.86a3,3,0,0,1,2.42.1,2.29,2.29,0,0,1,1.31,1.77l4.65,42.92a2.13,2.13,0,0,1-.62,1.7,2.81,2.81,0,0,1-1.84.8C153.32,202,152.57,202,151.83,202ZM147,160.37c-10,5.18-16.37,14.31-15.46,22.72s8.76,14.07,19.47,14.33Z"/><path class="af3c7afc-e77b-47c7-ad2a-4a59c2291d5d" d="M103.6,172.17c-27.91,1-28.46,13.27-19.59,32.21C100.77,198.31,111.86,187.63,103.6,172.17Z"/><path class="a17565cf-de10-4cee-b674-c6a8e55c0117" d="M83.33,208.62a3.08,3.08,0,0,1-1-.18,2.45,2.45,0,0,1-1.46-1.37c-4.26-10.81-7.38-21.83-1.43-29.22,4.14-5.14,12-7.75,24.14-8a2.69,2.69,0,0,1,2.42,1.26c3.52,6.07,4.13,12.08,1.81,17.86-3.1,7.73-11.39,14.62-23.33,19.41A3,3,0,0,1,83.33,208.62ZM102,174.51c-9.32.37-15.29,2.33-18.22,6-4.21,5.22-2,14.14,1.15,22.65,9.08-4.13,15.54-9.74,17.9-15.62A15.33,15.33,0,0,0,102,174.51Z"/><path class="a7282b98-ed20-4aae-8c10-dc73e1f0f7d8" d="M104.44,174.34a25,25,0,0,0-5.22,2.83,33.26,33.26,0,0,0-4.71,4.08,46.17,46.17,0,0,0-7.34,10.59,22.71,22.71,0,0,1,1-6.44,27.84,27.84,0,0,1,2.75-6.19,22,22,0,0,1,4.66-5.55,17,17,0,0,1,7.17-3.66,2.69,2.69,0,0,1,3.22,1.65,2.23,2.23,0,0,1-1.45,2.66Z"/><path class="af3c7afc-e77b-47c7-ad2a-4a59c2291d5d" d="M154.11,106.09c24.71-11.3,32.29-.93,35.6,19.31C171.7,127.46,155.92,123.06,154.11,106.09Z"/><path class="a17565cf-de10-4cee-b674-c6a8e55c0117" d="M185.63,129.33c-10.48,0-19.35-2.38-25.38-6.86a21.23,21.23,0,0,1-8.77-16.24,2.22,2.22,0,0,1,1.36-2.14c10.59-5.09,18.93-6.28,25.49-3.64,9.42,3.79,13.1,14.69,15.68,25.89a2,2,0,0,1-.47,1.82,2.82,2.82,0,0,1-1.87.92C189.6,129.24,187.59,129.33,185.63,129.33ZM156.9,107.4A16.79,16.79,0,0,0,163.69,119c5.46,4.06,14.29,6.08,24.53,5.7-2.19-8.74-5.46-17.4-12.12-20.08C171.46,102.74,165.17,103.65,156.9,107.4Z"/><path class="a7282b98-ed20-4aae-8c10-dc73e1f0f7d8" d="M153.58,103.85a18.83,18.83,0,0,1,8.32,0,26.93,26.93,0,0,1,7.25,2.77,33.72,33.72,0,0,1,5.95,4.15,26.47,26.47,0,0,1,4.61,5.13,57.25,57.25,0,0,0-12.48-6,39.23,39.23,0,0,0-6.44-1.47,27.64,27.64,0,0,0-6.14-.17h-.1a2.57,2.57,0,0,1-2.88-2.08A2.33,2.33,0,0,1,153.58,103.85Z"/><path class="af3c7afc-e77b-47c7-ad2a-4a59c2291d5d" d="M264,182.26c-19.14-15.39-28.88-7.63-37.51,9.94C242.12,197.85,257.58,197.2,264,182.26Z"/><path class="a17565cf-de10-4cee-b674-c6a8e55c0117" d="M241,198.07a57.22,57.22,0,0,1-17.38-3,2.39,2.39,0,0,1-1.44-1.22,1.88,1.88,0,0,1,.08-1.74c5.46-9.57,11.82-18.63,21.38-20.07,6.66-1,13.85,1.82,22,8.64a2,2,0,0,1,.63,2.22,21.86,21.86,0,0,1-12.45,12.8A33.39,33.39,0,0,1,241,198.07ZM228,191.87c9.14,2.51,17.67,2.53,23.73,0a17.34,17.34,0,0,0,9.36-9c-6.42-5.12-11.84-7.26-16.55-6.55C237.77,177.32,232.4,184.45,228,191.87Z"/><path class="a7282b98-ed20-4aae-8c10-dc73e1f0f7d8" d="M262.84,184.18a24.74,24.74,0,0,0-5.59-1.14,36.85,36.85,0,0,0-6.22,0,56.28,56.28,0,0,0-12.93,2.75,27.51,27.51,0,0,1,5.59-3.66,34.59,34.59,0,0,1,6.54-2.5,26.55,26.55,0,0,1,7.31-1,17.24,17.24,0,0,1,7.52,1.72,2,2,0,0,1,.85,2.94,2.66,2.66,0,0,1-3,.91Z"/><path class="af3c7afc-e77b-47c7-ad2a-4a59c2291d5d" d="M45.7,221.13c1.51.08,2.93.19,4.39.33s2.92.32,4.39.55a44,44,0,0,1,4.47.88,20.32,20.32,0,0,1,4.77,1.74l.19.1a3,3,0,0,1,1.21,4.38,4,4,0,0,1-5.06,1,4.4,4.4,0,0,1-.55-.37,12.79,12.79,0,0,0-2.84-1.46A38.26,38.26,0,0,0,53,227.1c-1.27-.37-2.58-.7-3.9-1s-2.69-.59-4-.82h0a2.11,2.11,0,0,1-1.87-2.47A2.37,2.37,0,0,1,45.7,221.13Z"/><g class="bc877140-fafd-4ddf-b603-cc339b8149d5"><path class="b66f5d32-b55d-49ff-aa6d-d43e5bb13395" d="M45.7,221.13c1.51.08,2.93.19,4.39.33s2.92.32,4.39.55a44,44,0,0,1,4.47.88,20.32,20.32,0,0,1,4.77,1.74l.19.1a3,3,0,0,1,1.21,4.38,4,4,0,0,1-5.06,1,4.4,4.4,0,0,1-.55-.37,12.79,12.79,0,0,0-2.84-1.46A38.26,38.26,0,0,0,53,227.1c-1.27-.37-2.58-.7-3.9-1s-2.69-.59-4-.82h0a2.11,2.11,0,0,1-1.87-2.47A2.37,2.37,0,0,1,45.7,221.13Z"/></g><path class="a17565cf-de10-4cee-b674-c6a8e55c0117" d="M62,232.46a6.45,6.45,0,0,1-3-.74,5.58,5.58,0,0,1-.86-.57A10,10,0,0,0,55.79,230a34.47,34.47,0,0,0-3.44-1.15c-1.2-.35-2.47-.68-3.78-1s-2.66-.57-3.87-.79a4.57,4.57,0,0,1-2.92-1.7,3.49,3.49,0,0,1-.65-2.94,4.48,4.48,0,0,1,4.69-3.12h0c1.46.07,2.89.18,4.51.34s3.06.33,4.52.56c1.77.27,3.26.56,4.69.92a23.09,23.09,0,0,1,5.28,1.94l.2.1a4.66,4.66,0,0,1,1.89,6.9A6,6,0,0,1,62,232.46ZM45.56,223a.29.29,0,0,0-.3.21.25.25,0,0,0,0,.2.31.31,0,0,0,.19.11c1.34.24,2.76.53,4.15.85s2.75.67,4,1a39.6,39.6,0,0,1,3.87,1.3,13.83,13.83,0,0,1,3.38,1.78,1.94,1.94,0,0,0,.24.15,1.72,1.72,0,0,0,2.15-.44,1.27,1.27,0,0,0-.51-1.87l-.2-.11a18.25,18.25,0,0,0-4.28-1.54,41.32,41.32,0,0,0-4.21-.83c-1.4-.22-2.79-.39-4.26-.53S47,223,45.57,223Z"/><path class="af3c7afc-e77b-47c7-ad2a-4a59c2291d5d" d="M49.05,223.62c-8.51-27-44.29-5-44.29-5S32.88,247.84,49.05,223.62Z"/><g class="bb89b662-019c-45b7-a6fd-d22f8b111252"><path class="b914e4a9-8f74-49c1-9472-bdd7f125c11c" d="M48.86,223.89l.19-.27c-8.51-27-44.29-5-44.29-5s1,1,2.62,2.46C14.09,217.39,40,204.72,48.86,223.89Z"/></g><path class="a17565cf-de10-4cee-b674-c6a8e55c0117" d="M32.22,235.05c-15.48,0-31-14.55-31.67-15.2A1.68,1.68,0,0,1,0,218.39a1.8,1.8,0,0,1,.93-1.3c.89-.51,22.14-12.52,37.37-7.55,6.27,2.05,10.56,6.63,12.76,13.59a1.62,1.62,0,0,1-.21,1.4c-4.19,6.28-9.73,9.79-16.45,10.42C33.69,235,33,235.05,32.22,235.05ZM5.48,219C10.1,222.86,22.7,232.37,34,231.32c5.09-.48,9.39-3.16,12.8-8C44.9,218,41.56,214.51,36.84,213,26.22,209.49,11.1,216.17,5.48,219Z"/><line class="af3c7afc-e77b-47c7-ad2a-4a59c2291d5d" x1="49.05" y1="223.62" x2="25.04" y2="220.91"/><path class="a7282b98-ed20-4aae-8c10-dc73e1f0f7d8" d="M48.78,225.43a57.17,57.17,0,0,1-6-.62c-2-.29-4-.68-6-1.07-4-.81-7.89-1.68-11.78-2.83,4.1-.24,8.17-.21,12.22-.12,2,.06,4.05.12,6.06.28a60.28,60.28,0,0,1,6,.73A1.86,1.86,0,0,1,50.94,224,2.09,2.09,0,0,1,48.78,225.43Z"/><path class="a17565cf-de10-4cee-b674-c6a8e55c0117" d="M31.48,235q4.05-3.12,8.19-6.17c2.76-2,5.54-4.05,8.45-6a2.35,2.35,0,0,1,3,.33,1.69,1.69,0,0,1-.38,2.58,2.21,2.21,0,0,1-.34.18h0c-3.17,1.37-6.33,2.88-9.48,4.4S34.6,233.45,31.48,235Z"/><path class="af3c7afc-e77b-47c7-ad2a-4a59c2291d5d" d="M49.14,224s-18.15.95-22.31,28.22C26.83,252.19,63.91,242,49.14,224Z"/><g class="bb89b662-019c-45b7-a6fd-d22f8b111252"><path class="b914e4a9-8f74-49c1-9472-bdd7f125c11c" d="M32.06,249.66c3.41-22.36,18.09-23.52,18.61-23.56A18.14,18.14,0,0,0,49.14,224s-18.15.95-22.31,28.22a71.69,71.69,0,0,0,15.07-6.37A61.24,61.24,0,0,1,32.06,249.66Z"/></g><path class="a17565cf-de10-4cee-b674-c6a8e55c0117" d="M26.83,254a2.31,2.31,0,0,1-1.35-.43,1.7,1.7,0,0,1-.73-1.64c4.33-28.44,23.46-29.76,24.27-29.81a2.21,2.21,0,0,1,1.84.77c3.74,4.55,4.77,9.08,3.08,13.48-4.34,11.31-25.57,17.29-26.47,17.54A2.3,2.3,0,0,1,26.83,254ZM48.15,226c-3.64.72-14.77,4.44-18.69,23.44,5.85-2,17.74-7,20.49-14.16C51.1,232.24,50.51,229.2,48.15,226Z"/><path class="a17565cf-de10-4cee-b674-c6a8e55c0117" d="M38.89,235.85c1.34-2.21,2.71-4.41,4.13-6.58s2.88-4.35,4.54-6.5a2.32,2.32,0,0,1,2.94-.5,1.7,1.7,0,0,1,.58,2.55,2.26,2.26,0,0,1-.34.35c-2.05,1.61-4.06,3.39-6,5.18S40.81,234,38.89,235.85Z"/><path class="af3c7afc-e77b-47c7-ad2a-4a59c2291d5d" d="M49,223.89s-16.92-5.78-11.16-32.83C37.83,191.06,69.44,210.75,49,223.89Z"/><g class="bb89b662-019c-45b7-a6fd-d22f8b111252"><path class="b914e4a9-8f74-49c1-9472-bdd7f125c11c" d="M42.75,194.58c-2.8-2.19-4.92-3.52-4.92-3.52C32.07,218.11,49,223.89,49,223.89c.25-.16.49-.32.72-.49C46.34,221.25,37.58,213.61,42.75,194.58Z"/></g><path class="a17565cf-de10-4cee-b674-c6a8e55c0117" d="M49,225.72a2.54,2.54,0,0,1-.77-.13c-.75-.26-18.47-6.65-12.46-34.86A1.9,1.9,0,0,1,37,189.37a2.39,2.39,0,0,1,2,.21c.76.48,18.82,11.86,18.92,23.78.05,4.63-2.56,8.67-7.73,12A2.4,2.4,0,0,1,49,225.72Zm-9.66-31.29c-3,19.13,6.22,25.65,9.42,27.3,3.4-2.45,5-5.19,5-8.34C53.71,205.84,44.16,197.94,39.33,194.43Z"/><path class="a17565cf-de10-4cee-b674-c6a8e55c0117" d="M43.48,209.84c1.15,2.28,2.34,4.55,3.57,6.79s2.51,4.47,3.89,6.54a1.72,1.72,0,0,1-.78,2.52,2.31,2.31,0,0,1-2.9-.67,1.6,1.6,0,0,1-.2-.42c-.82-2.49-1.42-4.93-2-7.39S44,212.3,43.48,209.84Z"/><path class="b66f5d32-b55d-49ff-aa6d-d43e5bb13395" d="M16.92,297.77a.66.66,0,0,0,.22.22,1.3,1.3,0,0,0,.47.18,6.26,6.26,0,0,0,2,0,26.59,26.59,0,0,0,5.19-1.39A84.45,84.45,0,0,0,35.22,292c6.78-3.65,13.32-7.74,19.71-12s12.61-8.73,18.7-13.34q2.28-1.72,4.53-3.48c1.51-1.17,3-2.36,4.52-3.54.78-.59,1.55-1.19,2.33-1.77l2.4-1.68,1.21-.84,1.23-.8L92.33,253c13.42-8.23,28.3-14.37,43.64-19.09,7.67-2.38,15.47-4.42,23.35-6.12s15.85-3.15,23.88-4.14a319.78,319.78,0,0,0-46.53,11.88q-11.3,3.81-22,8.65a161.29,161.29,0,0,0-20.42,11.06l-2.37,1.6-1.19.8-1.14.84-2.29,1.67c-.75.58-1.47,1.17-2.21,1.76-1.46,1.14-2.93,2.41-4.41,3.62s-3,2.41-4.47,3.61c-6,4.77-12.17,9.41-18.51,13.86a225.81,225.81,0,0,1-19.81,12.61,89.07,89.07,0,0,1-11,5.27,30.77,30.77,0,0,1-6.38,1.78,12.52,12.52,0,0,1-4,0,7.17,7.17,0,0,1-2.3-.85A5.65,5.65,0,0,1,12.33,300a2.14,2.14,0,0,1,1-3.13,2.87,2.87,0,0,1,3.6.83Z"/><g class="bc877140-fafd-4ddf-b603-cc339b8149d5"><ellipse class="b66f5d32-b55d-49ff-aa6d-d43e5bb13395" cx="323.03" cy="189.75" rx="4.19" ry="2.69" transform="translate(-27.77 58.25) rotate(-9.88)"/></g><g class="bc877140-fafd-4ddf-b603-cc339b8149d5"><ellipse class="b66f5d32-b55d-49ff-aa6d-d43e5bb13395" cx="303.6" cy="180.4" rx="6.81" ry="4.37" transform="translate(-26.45 54.77) rotate(-9.88)"/></g><g class="bc877140-fafd-4ddf-b603-cc339b8149d5"><ellipse class="b66f5d32-b55d-49ff-aa6d-d43e5bb13395" cx="259.78" cy="154.99" rx="5.28" ry="3.69" transform="translate(-28.14 62.22) rotate(-12.96)"/></g><g class="bc877140-fafd-4ddf-b603-cc339b8149d5"><ellipse class="b66f5d32-b55d-49ff-aa6d-d43e5bb13395" cx="310.44" cy="110.59" rx="3.65" ry="2.55" transform="translate(-16.89 72.45) rotate(-12.96)"/></g><g class="bc877140-fafd-4ddf-b603-cc339b8149d5"><ellipse class="b66f5d32-b55d-49ff-aa6d-d43e5bb13395" cx="317.11" cy="143.88" rx="4.15" ry="2.89" transform="translate(-24.19 74.79) rotate(-12.96)"/></g><g class="bc877140-fafd-4ddf-b603-cc339b8149d5"><path class="b66f5d32-b55d-49ff-aa6d-d43e5bb13395" d="M277.21,132.41c.53,1.22-.49,2.68-2.28,3.27s-3.67.07-4.2-1.15.49-2.68,2.28-3.27S276.68,131.19,277.21,132.41Z"/></g><g class="bc877140-fafd-4ddf-b603-cc339b8149d5"><ellipse class="b66f5d32-b55d-49ff-aa6d-d43e5bb13395" cx="215" cy="174.83" rx="3.69" ry="2.69" transform="translate(-51.13 97.59) rotate(-22.93)"/></g><g class="bc877140-fafd-4ddf-b603-cc339b8149d5"><ellipse class="b66f5d32-b55d-49ff-aa6d-d43e5bb13395" cx="223.51" cy="143.19" rx="3.66" ry="2.67" transform="translate(-38.13 98.4) rotate(-22.93)"/></g><g class="bc877140-fafd-4ddf-b603-cc339b8149d5"><ellipse class="b66f5d32-b55d-49ff-aa6d-d43e5bb13395" cx="107.7" cy="226.77" rx="4.86" ry="3.54" transform="translate(-79.85 59.89) rotate(-22.93)"/></g><g class="bc877140-fafd-4ddf-b603-cc339b8149d5"><ellipse class="b66f5d32-b55d-49ff-aa6d-d43e5bb13395" cx="110.15" cy="203.61" rx="4.11" ry="2.99" transform="translate(-70.63 59.01) rotate(-22.93)"/></g><g class="bc877140-fafd-4ddf-b603-cc339b8149d5"><ellipse class="b66f5d32-b55d-49ff-aa6d-d43e5bb13395" cx="69.55" cy="248.96" rx="2.7" ry="1.97" transform="translate(-91.5 46.77) rotate(-22.93)"/></g><g class="bc877140-fafd-4ddf-b603-cc339b8149d5"><ellipse class="b66f5d32-b55d-49ff-aa6d-d43e5bb13395" cx="111.08" cy="161.29" rx="4.11" ry="2.99" transform="translate(-54.07 56.03) rotate(-22.93)"/></g><g class="bc877140-fafd-4ddf-b603-cc339b8149d5"><ellipse class="b66f5d32-b55d-49ff-aa6d-d43e5bb13395" cx="148.18" cy="138.14" rx="5.36" ry="3.91" transform="translate(-42.11 68.65) rotate(-22.93)"/></g><path class="a6752009-5c7b-4eac-9dd1-4d044860889e" d="M359.84,196.49C354.52,222.75,423.6,227,423.6,227s43.76-88.86-26.83-164.71S230.15-2,219.69,15.86,230,42,230,42,388.68,54.09,359.84,196.49Z"/><g class="bb89b662-019c-45b7-a6fd-d22f8b111252"><path class="b914e4a9-8f74-49c1-9472-bdd7f125c11c" d="M396.77,62.29C326.17-13.55,230.15-2,219.69,15.86c-9.32,16,6.11,24.2,9.59,25.8-4.19-3.92-7.68-10.36-2.3-19.56,2.29-3.92,9-7.5,18.71-9.78-2.25,1.24-3.5,2.67-3.23,4,.55,2.66,7.09,3.87,14.61,2.7s13.18-4.26,12.63-6.92c-.2-.95-1.17-1.72-2.68-2.25,34.27-.74,84,11.78,124.58,55.43,65.63,70.51,24.95,153.13,24.95,153.13s-45.56-2.81-57-18.28c1.39,23,64,26.89,64,26.89S467.36,138.14,396.77,62.29Z"/></g><g class="bc877140-fafd-4ddf-b603-cc339b8149d5"><path class="b66f5d32-b55d-49ff-aa6d-d43e5bb13395" d="M423.6,227s6-12.12,9.93-31.21c-7.22-6-18.2-10.88-29.73-14.9-10.19-3.56-16.51-12.43-15.56-21.92,2.45-24.5,2.33-55.36-22.14-81.65-55.2-59.3-130-51.25-140-37.39A26.72,26.72,0,0,0,230,42S388.68,54.09,359.84,196.49C354.52,222.75,423.6,227,423.6,227Z"/></g><path class="b66f5d32-b55d-49ff-aa6d-d43e5bb13395" d="M423.61,229.62h-.22c-1.94-.12-47.78-3.11-62.33-19.27-3.84-4.27-5.25-9.08-4.19-14.3,8.57-42.32,1.17-77.08-22-103.31C297.33,50.25,230.36,44.62,229.69,44.57a3.32,3.32,0,0,1-1-.23c-.42-.16-10.33-4.16-13.8-12.77-2.11-5.22-1.41-10.91,2.09-16.9,4.11-7,18-12.44,36.36-14.12,40-3.66,99.33,10.2,145.76,60.1,37.07,39.83,42.52,83.21,40.56,112.59C437.55,205,426.84,227.11,426.38,228A3.06,3.06,0,0,1,423.61,229.62Zm-63.77-33.13,3,.46a11.12,11.12,0,0,0,3,10.16c11.26,12.51,46.62,16.32,55.8,17.11a160.49,160.49,0,0,0,12-51.47c1.86-28.41-3.44-70.35-39.24-108.81C349.5,15.68,292.42,2.25,254,5.76c-18.25,1.68-29,6.87-31.6,11.28-2.72,4.66-3.33,9-1.8,12.76,2.26,5.64,8.56,8.84,10.22,9.6A203.05,203.05,0,0,1,270,47.6c20.43,6.32,49.08,18.72,69.59,41.91C363.89,117,371.7,153.1,362.81,197Z"/><path class="bdf863a2-c29e-4bcd-88aa-cde173fe5a28" d="M423.6,227s-13.51,13.24-40.21,6.06-33-23.21-23.55-36.57S442.75,200,423.6,227Z"/><g class="bc877140-fafd-4ddf-b603-cc339b8149d5"><path class="b66f5d32-b55d-49ff-aa6d-d43e5bb13395" d="M423.6,227s-13.51,13.24-40.21,6.06-33-23.21-23.55-36.57S442.75,200,423.6,227Z"/></g><path class="b66f5d32-b55d-49ff-aa6d-d43e5bb13395" d="M398.77,237.83a62.57,62.57,0,0,1-16.28-2.27c-18.48-5-25.5-13.27-28.15-19.35-2.93-6.75-1.9-14.24,2.93-21.08,3.64-5.18,12.73-6.07,19.71-5.92,18.24.42,42.66,8.43,50.3,20.66,3.68,5.89,3.3,12.29-1.1,18.5a3.68,3.68,0,0,1-.32.37C425.39,229.2,416.32,237.83,398.77,237.83Zm-23.22-43.39c-6.74,0-11.61,1.25-13.13,3.42-3.89,5.51-4.73,11.22-2.43,16.5,3.07,7,11.69,12.8,24.29,16.2,23.13,6.22,35.29-3.71,36.91-5.15,3.15-4.57,3.41-8.84.78-13-6.4-10.25-28.51-17.54-45.14-17.92ZM423.6,227h0Z"/><path class="a33b5bba-0bbf-4bd8-b3ad-178da5f941ea" d="M267.48,30.59a7.74,7.74,0,0,1-.85-3.72,9.47,9.47,0,0,1,.81-3.77,8.63,8.63,0,0,1,2.41-3.29A8,8,0,0,1,273.76,18c-.7,1.19-1.47,2.09-2.05,3.1A31.57,31.57,0,0,0,270,24a30.54,30.54,0,0,0-1.34,3.14C268.27,28.24,267.89,29.36,267.48,30.59Z"/><path class="a33b5bba-0bbf-4bd8-b3ad-178da5f941ea" d="M275.49,35.17a11.91,11.91,0,0,1,0-5.18,14.9,14.9,0,0,1,2-5,13.77,13.77,0,0,1,3.87-4.12c.41-.27.81-.54,1.24-.79s.89-.43,1.35-.62a8.2,8.2,0,0,1,1.42-.49,14.76,14.76,0,0,1,1.47-.31c-1.35,1.34-2.72,2.4-3.82,3.68a29,29,0,0,0-3.1,3.84,34.43,34.43,0,0,0-2.44,4.27C276.74,32,276.12,33.54,275.49,35.17Z"/><path class="a33b5bba-0bbf-4bd8-b3ad-178da5f941ea" d="M388.46,146.92a18.71,18.71,0,0,1,5.69-2.5,23.54,23.54,0,0,1,6.4-.78,18.68,18.68,0,0,1,6.4,1.15c.5.21,1,.39,1.48.62s.91.52,1.35.79a8.13,8.13,0,0,1,1.24.92c.38.34.75.67,1.09,1-2.11-.48-3.94-1.11-5.89-1.4a39.89,39.89,0,0,0-5.76-.69,51,51,0,0,0-5.91.12C392.55,146.33,390.55,146.6,388.46,146.92Z"/><path class="a33b5bba-0bbf-4bd8-b3ad-178da5f941ea" d="M385.11,159a29.78,29.78,0,0,1,8.42-2.2,35,35,0,0,1,8.92,0c.74.12,1.49.19,2.22.36s1.45.35,2.17.54,1.41.47,2.1.72l1,.39,1,.48c.65.34,1.3.66,1.92,1s1.16.83,1.74,1.23a9.1,9.1,0,0,1,.83.64l.75.72c.49.49,1,1,1.41,1.49a64.38,64.38,0,0,0-7.67-3.24l-1-.35-1-.27c-.66-.17-1.3-.4-2-.54s-1.34-.3-2-.45-1.35-.23-2-.35a58.61,58.61,0,0,0-8.32-.65A80.14,80.14,0,0,0,385.11,159Z"/><path class="af3c7afc-e77b-47c7-ad2a-4a59c2291d5d" d="M298.84,138c21.4-9.79,28-.8,30.83,16.73C314.07,156.51,300.41,152.7,298.84,138Z"/><path class="a17565cf-de10-4cee-b674-c6a8e55c0117" d="M326.13,158.12c-9.07,0-16.75-2.05-22-5.94a18.34,18.34,0,0,1-7.6-14.06,1.92,1.92,0,0,1,1.17-1.85c9.18-4.41,16.4-5.44,22.08-3.15,8.16,3.28,11.35,12.72,13.58,22.42a1.8,1.8,0,0,1-.4,1.58,2.44,2.44,0,0,1-1.63.79C329.58,158.05,327.83,158.12,326.13,158.12Zm-24.88-19a14.51,14.51,0,0,0,5.89,10c4.72,3.52,12.37,5.27,21.24,4.94-1.9-7.57-4.73-15.07-10.49-17.39C313.87,135.1,308.42,135.89,301.25,139.13Z"/><path class="a7282b98-ed20-4aae-8c10-dc73e1f0f7d8" d="M298.38,136.06a16.38,16.38,0,0,1,7.21,0,23.45,23.45,0,0,1,6.27,2.4,29.27,29.27,0,0,1,5.16,3.6,23.15,23.15,0,0,1,4,4.44,49.52,49.52,0,0,0-10.81-5.16,33.78,33.78,0,0,0-5.57-1.27,24,24,0,0,0-5.33-.15h-.08a2.23,2.23,0,0,1-2.5-1.79A2,2,0,0,1,298.38,136.06Z"/></g></g></svg>