<svg width="26" height="26" viewBox="0 0 26 26" fill="none" xmlns="http://www.w3.org/2000/svg">
<g clip-path="url(#clip0)">
<path d="M22.8136 10.8636H15.373C15.1313 10.8636 14.9353 10.6642 14.9353 10.4182V2.84725C14.9353 1.61753 13.9555 0.620483 12.7469 0.620483C11.5384 0.620483 10.5586 1.61753 10.5586 2.84725V10.4182C10.5586 10.6642 10.3626 10.8636 10.1209 10.8636H2.68034C1.4718 10.8636 0.491943 11.8606 0.491943 13.0904C0.491943 14.3201 1.4718 15.3171 2.68034 15.3171H10.1209C10.3626 15.3171 10.5586 15.5165 10.5586 15.7625V23.3335C10.5586 24.5632 11.5384 25.5602 12.7469 25.5602C13.9555 25.5602 14.9353 24.5632 14.9353 23.3335V15.7625C14.9353 15.5165 15.1313 15.3171 15.373 15.3171H22.8136C24.0221 15.3171 25.0019 14.3201 25.0019 13.0904C25.0019 11.8606 24.0221 10.8636 22.8136 10.8636Z" fill="#fb9302"/>
</g>
<defs>
<clipPath id="clip0">
<rect width="24.51" height="24.9398" fill="white" transform="translate(0.491943 0.620483)"/>
</clipPath>
</defs>
</svg>
