<svg width="12" height="12" viewBox="0 0 18 18" fill="none" xmlns="http://www.w3.org/2000/svg">
    <path d="M17.3898 0.57781C16.7288 -0.136665 15.5593 -0.246584 15 0.57781C12.5593 4.15018 7.0678 13.3284 7.0678 13.3284L2.94915 8.32711C2.64407 7.99735 2.18644 7.77752 1.72881 7.77752C1.27119 7.77752 0.813559 7.99735 0.508475 8.32711C0.20339 8.65687 0 9.15151 0 9.64614C0 10.1408 0.20339 10.6354 0.508475 10.9652L6 17.4504C6.30508 17.7802 6.76271 18 7.22034 18C7.67797 18 8.13559 17.8351 8.44068 17.4504C10.983 14.1528 15.1525 6.89816 17.5424 3.21587C17.7966 2.83115 18 2.39148 18 1.9518C17.8983 1.4022 17.6949 0.962527 17.3898 0.57781Z"
          fill="#434141"/>
</svg>
